<svg xmlns="http://www.w3.org/2000/svg" xmlns:xlink="http://www.w3.org/1999/xlink" fill="none" version="1.1" width="114" height="20" viewBox="0 0 114 20"><g><path d="M1.54325,16L1.54325,4.8L4.14125,4.8L4.14125,16L1.54325,16ZM12.1582,16.1885Q10.853,16.1885,9.74275,15.7645Q8.6325,15.3405,7.8165,14.5612Q7.00075,13.782,6.5465,12.7245Q6.09225,11.667,6.09225,10.4Q6.09225,9.133,6.5465,8.0755Q7.00075,7.018,7.8215,6.23875Q8.64225,5.4595,9.75225,5.0355Q10.8625,4.6115,12.168,4.6115Q13.623,4.6115,14.8033,5.11525Q15.9835,5.61875,16.7768,6.591L15.117,8.13Q14.5437,7.477,13.8375,7.14275Q13.1313,6.80825,12.2925,6.80825Q11.5072,6.80825,10.8535,7.068Q10.1997,7.3275,9.7205,7.8065Q9.2415,8.2855,8.977,8.9455Q8.7125,9.6055,8.7125,10.4Q8.7125,11.1945,8.977,11.8545Q9.2415,12.5145,9.7205,12.9935Q10.1997,13.4725,10.8535,13.7323Q11.5072,13.9917,12.2925,13.9917Q13.1313,13.9917,13.8375,13.6575Q14.5437,13.323,15.117,12.6602L16.7768,14.1995Q15.9835,15.1652,14.8033,15.677Q13.623,16.1885,12.1582,16.1885ZM18.5193,16L18.5193,4.8L23.3608,4.8Q24.871,4.8,25.9618,5.288Q27.0528,5.77575,27.643,6.68925Q28.2333,7.6025,28.2333,8.85975Q28.2333,10.1075,27.643,11.0177Q27.0528,11.928,25.9618,12.419Q24.871,12.91,23.3608,12.91L19.9588,12.91L21.1173,11.7477L21.1173,16L18.5193,16ZM21.1173,12.0287L19.9588,10.7995L23.227,10.7995Q24.4165,10.7995,25.0145,10.2882Q25.6128,9.77675,25.6128,8.85975Q25.6128,7.93325,25.0145,7.422Q24.4165,6.91075,23.227,6.91075L19.9588,6.91075L21.1173,5.6815L21.1173,12.0287ZM35.0883,16L35.0883,14.3225L34.9385,13.945L34.9385,10.9432Q34.9385,10.139,34.4498,9.697Q33.9613,9.25475,32.9463,9.25475Q32.2673,9.25475,31.6013,9.46775Q30.9355,9.6805,30.4648,10.0487L29.5735,8.31175Q30.2835,7.80275,31.2735,7.53725Q32.2635,7.2715,33.2875,7.2715Q35.2635,7.2715,36.349,8.1975Q37.4345,9.12325,37.4345,11.0835L37.4345,16L35.0883,16ZM32.473,16.1215Q31.4688,16.1215,30.7488,15.7825Q30.0288,15.4432,29.6463,14.8515Q29.2638,14.2595,29.2638,13.5173Q29.2638,12.7563,29.6378,12.1788Q30.0118,11.601,30.8273,11.273Q31.643,10.9447,32.9548,10.9447L35.2325,10.9447L35.2325,12.3993L33.2315,12.3993Q32.3465,12.3993,32.0198,12.6847Q31.693,12.97,31.693,13.4152Q31.693,13.8833,32.065,14.1655Q32.437,14.4475,33.088,14.4475Q33.7168,14.4475,34.217,14.1558Q34.7173,13.864,34.9385,13.2775L35.3155,14.4365Q35.0498,15.258,34.3293,15.6897Q33.609,16.1215,32.473,16.1215ZM44.914,7.2715Q45.9413,7.2715,46.7475,7.67475Q47.554,8.07775,48.021,8.91775Q48.4883,9.7575,48.4883,11.0755L48.4883,16L45.9923,16L45.9923,11.4485Q45.9923,10.4105,45.5353,9.917Q45.0783,9.42325,44.254,9.42325Q43.6543,9.42325,43.183,9.67325Q42.7118,9.92325,42.4505,10.4327Q42.1893,10.9422,42.1893,11.7432L42.1893,16L39.6933,16L39.6933,7.39275L42.0713,7.39275L42.0713,9.779L41.6245,9.06225Q42.0883,8.18625,42.9505,7.729Q43.813,7.2715,44.914,7.2715ZM54.4988,16.1215Q53.2953,16.1215,52.3175,15.5743Q51.3398,15.027,50.7735,14.0352Q50.2073,13.0433,50.2073,11.6932Q50.2073,10.3433,50.7735,9.3515Q51.3398,8.3595,52.3175,7.8155Q53.2953,7.2715,54.4988,7.2715Q55.5928,7.2715,56.406,7.75Q57.2193,8.22825,57.6725,9.204Q58.126,10.1797,58.126,11.6932Q58.126,13.2032,57.6918,14.1873Q57.2578,15.171,56.4475,15.6462Q55.6375,16.1215,54.4988,16.1215ZM54.9283,14.0778Q55.5503,14.0778,56.044,13.794Q56.538,13.5103,56.8313,12.9688Q57.1248,12.427,57.1248,11.6932Q57.1248,10.9435,56.8313,10.413Q56.538,9.8825,56.044,9.59875Q55.5503,9.315,54.9283,9.315Q54.3063,9.315,53.8125,9.59875Q53.3188,9.8825,53.0253,10.413Q52.732,10.9435,52.732,11.6932Q52.732,12.427,53.0253,12.9688Q53.3188,13.5103,53.8125,13.794Q54.3063,14.0778,54.9283,14.0778ZM57.198,16L57.198,14.2367L57.24,11.6835L57.08,9.1305L57.08,4.128L59.576,4.128L59.576,16L57.198,16ZM67.1523,16L67.1523,14.3225L67.0025,13.945L67.0025,10.9432Q67.0025,10.139,66.5137,9.697Q66.0253,9.25475,65.0103,9.25475Q64.3313,9.25475,63.6653,9.46775Q62.9995,9.6805,62.5288,10.0487L61.6375,8.31175Q62.3475,7.80275,63.3375,7.53725Q64.3275,7.2715,65.3515,7.2715Q67.3275,7.2715,68.413,8.1975Q69.4985,9.12325,69.4985,11.0835L69.4985,16L67.1523,16ZM64.537,16.1215Q63.5327,16.1215,62.8128,15.7825Q62.0928,15.4432,61.7103,14.8515Q61.3278,14.2595,61.3278,13.5173Q61.3278,12.7563,61.7018,12.1788Q62.0758,11.601,62.8913,11.273Q63.707,10.9447,65.0188,10.9447L67.2965,10.9447L67.2965,12.3993L65.2955,12.3993Q64.4105,12.3993,64.0837,12.6847Q63.757,12.97,63.757,13.4152Q63.757,13.8833,64.129,14.1655Q64.501,14.4475,65.152,14.4475Q65.7808,14.4475,66.281,14.1558Q66.7812,13.864,67.0025,13.2775L67.3795,14.4365Q67.1138,15.258,66.3932,15.6897Q65.673,16.1215,64.537,16.1215Z" fill="#11C291" fill-opacity="1"/><path d="M76.4553,16L76.4553,4.8L81.5408,4.8Q83.374,4.8,84.7643,5.4945Q86.1545,6.189,86.935,7.44175Q87.7158,8.6945,87.7158,10.3967Q87.7158,12.099,86.935,13.355Q86.1545,14.611,84.7643,15.3055Q83.374,16,81.5408,16L76.4553,16ZM79.0533,13.8767L81.4193,13.8767Q82.541,13.8767,83.3615,13.452Q84.182,13.0273,84.6388,12.244Q85.0955,11.4605,85.0955,10.3967Q85.0955,9.3235,84.6388,8.54825Q84.182,7.77275,83.3615,7.348Q82.541,6.92325,81.4193,6.92325L79.0533,6.92325L79.0533,13.8767ZM88.0345,16L93.027,4.8L95.5903,4.8L100.592,16L97.8855,16L93.777,6.119L94.805,6.119L90.6965,16L88.0345,16ZM90.541,13.604L91.221,11.637L96.991,11.637L97.6805,13.604L90.541,13.604ZM107.04,16.1885Q105.718,16.1885,104.594,15.7565Q103.471,15.3245,102.647,14.5422Q101.823,13.7598,101.366,12.7048Q100.908,11.6497,100.908,10.397Q100.908,9.14425,101.366,8.09375Q101.823,7.043,102.648,6.258Q103.473,5.47275,104.593,5.04225Q105.713,4.6115,107.035,4.6115Q108.363,4.6115,109.477,5.0405Q110.591,5.46925,111.414,6.25125Q112.237,7.03325,112.695,8.08725Q113.152,9.14125,113.152,10.398Q113.152,11.6547,112.695,12.7122Q112.237,13.7695,111.414,14.5503Q110.591,15.3307,109.477,15.7598Q108.363,16.1885,107.04,16.1885ZM107.035,13.9917Q107.785,13.9917,108.42,13.7308Q109.056,13.4697,109.529,12.9905Q110.003,12.5112,110.267,11.8533Q110.532,11.195,110.532,10.397Q110.532,9.59925,110.269,8.945Q110.005,8.2905,109.531,7.81075Q109.057,7.331,108.421,7.06975Q107.786,6.80825,107.035,6.80825Q106.285,6.80825,105.647,7.07Q105.008,7.3315,104.533,7.812Q104.057,8.29225,103.793,8.9475Q103.528,9.6025,103.528,10.3967Q103.528,11.1912,103.792,11.8492Q104.056,12.5072,104.531,12.99Q105.006,13.4725,105.645,13.7323Q106.285,13.9917,107.035,13.9917Z" fill="#FFFFFF" fill-opacity="1"/></g></svg>