<svg width="1144" height="310" viewBox="0 0 1144 310" fill="none" xmlns="http://www.w3.org/2000/svg">
<path fill-rule="evenodd" clip-rule="evenodd" d="M988.403 47.749L961.303 48.032L960.153 50.563C959.523 51.955 959.003 53.567 959.003 54.146C959.003 54.724 958.283 56.841 957.403 58.849C954.833 64.703 954.313 66.065 951.453 74.5C949.963 78.9 946.303 88.8 943.313 96.5C940.333 104.2 937.393 111.85 936.793 113.5C935.563 116.874 933.723 121.361 931.503 126.401C930.673 128.272 930.003 130.077 930.003 130.412C930.003 130.747 929.153 132.929 928.123 135.261C927.093 137.592 925.483 141.75 924.543 144.5C923.613 147.25 922.473 150.4 922.033 151.5C921.583 152.6 920.453 155.75 919.533 158.5C918.603 161.25 917.483 164.4 917.043 165.5C916.603 166.6 915.453 169.525 914.503 172C913.543 174.475 912.383 177.4 911.913 178.5C911.453 179.6 908.553 187.025 905.483 195C902.413 202.975 899.483 210.4 898.973 211.5C896.763 216.246 890.003 234.502 890.003 235.693C890.003 236.412 889.553 237 889.003 237C888.453 237 888.003 237.66 888.003 238.466C888.003 239.272 887.263 241.635 886.363 243.716C884.433 248.176 885.143 246.342 875.513 271.5C865.453 297.766 862.003 307.123 862.003 308.154C862.003 308.619 880.573 309 903.273 309H944.543L947.873 298.25C949.343 293.505 950.793 288.755 952.243 284C953.353 280.272 953.463 279.949 955.913 273L957.503 268.5L998.933 267.784C1030.75 267.235 1040.96 267.352 1042.93 268.291C1045.47 269.5 1054.83 293.845 1054.95 299.55C1054.98 300.678 1055.41 302.028 1055.91 302.55C1056.42 303.073 1056.98 304.625 1057.16 306L1057.5 308.5L1100.76 308.761C1143.82 309.02 1144.02 309.011 1143.01 307.011L1141 303.014C1140.45 301.921 1139.99 300.459 1139.99 299.764C1139.99 299.069 1139.4 297.375 1138.69 296C1137.98 294.625 1136.58 290.8 1135.57 287.5C1134.56 284.2 1133.35 281.073 1132.87 280.55C1132.39 280.028 1132 278.655 1132 277.5C1132 276.345 1131.62 274.972 1131.16 274.45C1130.7 273.927 1129.54 271.25 1128.57 268.5C1127.6 265.75 1126.18 262.082 1125.4 260.349C1124.63 258.616 1124 256.923 1124 256.588C1124 256.253 1123.16 254.071 1122.13 251.739C1120.88 248.846 1119.66 245.933 1118.5 243C1117.49 240.436 1116.44 237.886 1115.36 235.349C1114.61 233.616 1114 231.827 1114 231.374C1114 230.509 1110.81 221.738 1105.5 208C1104.66 205.831 1103.81 203.664 1102.96 201.5C1102.52 200.4 1100.28 194.325 1097.97 188C1095.67 181.675 1093.43 175.6 1093.01 174.5C1089.46 165.302 1088.66 163.252 1087.93 161.5C1087.47 160.4 1084.89 153.425 1082.19 146C1078.09 134.733 1067.93 107.875 1064.98 100.5C1064.54 99.4 1062.53 94 1060.52 88.5C1057.25 79.579 1055.56 75.106 1052.97 68.5C1052.54 67.4 1050.68 62.372 1048.84 57.326C1044.89 46.483 1045.73 46.885 1027.62 47.233C1020.95 47.362 1003.3 47.594 988.403 47.749ZM339.461 49.25C339.2 49.938 339.101 108.55 339.243 179.5L339.5 308.5L377.25 308.762L415 309.024V250.571C415 218.422 415.39 191.877 415.867 191.582C416.742 191.042 425 198.767 425 200.126C425 200.528 425.57 201.452 426.267 202.179C427.45 203.412 434.395 212.374 448.989 231.5C453.086 236.868 457.189 242.231 461.297 247.59C464.709 252.04 470.193 259.24 473.484 263.59C476.775 267.941 479.925 271.986 480.484 272.58C481.043 273.174 483.75 276.694 486.5 280.402C489.25 284.11 493.75 290.013 496.5 293.52C499.25 297.028 502.836 301.736 504.469 303.984C508.336 309.309 506.702 309.103 542.5 308.78L573.5 308.5L573.801 186.5C573.966 119.4 573.813 60.782 573.46 56.238L572.818 47.976L534.659 48.238L496.5 48.5V106.196C496.5 146.619 496.173 164.22 495.406 164.989C494.242 166.159 490.821 162.444 482.139 150.581C479.691 147.237 477.391 144.275 477.028 144C476.665 143.725 474.857 141.25 473.01 138.5C470.206 134.307 467.208 130.248 464.025 126.335C463.505 125.694 458.899 119.671 453.79 112.952C448.68 106.232 442.7 98.382 440.5 95.507C438.3 92.632 433.164 85.829 429.086 80.39C425.009 74.95 421.394 70.275 421.054 70C420.714 69.725 416.934 64.662 412.654 58.75L404.871 48H372.404C347.351 48 339.829 48.285 339.461 49.25ZM618.667 48.667C617.801 49.532 617.796 267.035 618.66 290.91L619.321 309.14L671.91 308.616C724.909 308.088 738.678 307.396 751.5 304.619C755.35 303.785 759.85 302.821 761.5 302.476C763.15 302.131 765.4 301.487 766.5 301.043C767.6 300.6 771.873 298.981 776.003 297.446C785.073 294.069 801.553 285.58 804.003 283.023C804.273 282.735 806.753 280.705 809.503 278.511C828.703 263.19 847.073 236.078 852.853 214.5C853.453 212.3 854.723 207.8 855.693 204.5C858.443 195.128 858.163 156.477 855.263 146C850.983 130.517 842.083 109.929 837.973 106C837.693 105.725 835.313 102.575 832.693 99C818.203 79.247 797.783 64.536 774.003 56.735C761.184 52.531 751.23 50.34 739.211 49.079C728.053 47.909 619.795 47.538 618.667 48.667ZM697.878 123.75C696.358 127.649 697.783 232.743 699.369 233.74C703.49 236.33 741.73 233.864 743.568 230.89C743.871 230.4 744.879 229.996 745.809 229.99C746.739 229.985 750.282 228.216 753.681 226.059C780.183 209.246 783.153 157.72 758.983 134.142C748.012 123.439 739.829 121 714.899 121H698.95L697.878 123.75ZM1001.2 132.26C1000.62 132.954 998.513 138.691 996.503 145.01C994.493 151.33 992.493 157.4 992.053 158.5C991.613 159.6 990.493 163.2 989.573 166.5C988.643 169.8 987.503 173.4 987.013 174.5C986.533 175.6 985.403 178.975 984.503 182C983.593 185.025 982.453 188.4 981.953 189.5C981.453 190.6 979.893 195.544 978.483 200.487C976.083 208.93 976.033 209.55 977.653 210.737C979.583 212.147 1015.29 212.475 1022.5 211.148C1027.36 210.253 1027.36 210.081 1022.58 194.5C1020.73 188.45 1018.98 182.6 1018.7 181.5C1017.6 177.175 1005.13 136.336 1004.12 133.75C1002.9 130.632 1002.65 130.505 1001.2 132.26Z" fill="#060606"/>
<path fill-rule="evenodd" clip-rule="evenodd" d="M85.1483 24.4428C87.454 22.9765 89.7822 21.5927 92.1329 20.2914C83.513 9.37123 70.3668 3 56.4545 3C31.3507 3 11 23.3507 11 48.4545C11 63.6348 18.5781 77.8131 31.1996 86.2473C33.6304 81.257 36.3613 76.3194 39.3922 71.4345C51.6183 51.73 66.8703 36.0661 85.1483 24.4428ZM264.594 71.4345C267.613 76.2995 270.334 81.2168 272.757 86.1864C285.326 77.7434 292.866 63.596 292.866 48.4545C292.866 23.3507 272.515 3 247.412 3C233.52 3 220.391 9.35233 211.77 20.2449C214.149 21.5598 216.505 22.9591 218.838 24.4428C237.116 36.0661 252.368 51.73 264.594 71.4345ZM64.6315 138.733C42.4921 105.829 91.1991 71.8289 114.446 88.2806C124.192 96.0838 124.838 103.617 121.825 112.225C118.812 120.619 109.988 123.847 101.379 130.089C93.5713 135.749 97.7203 144.939 89.5419 149.028C83.6008 151.999 70.1664 146.958 64.6315 138.733ZM238.654 138.733C260.793 105.829 212.086 71.8289 188.839 88.2806C179.093 96.0838 178.447 103.617 181.46 112.225C184.473 120.619 193.297 123.847 201.906 130.089C209.714 135.749 205.565 144.939 213.743 149.028C219.684 151.999 233.119 146.958 238.654 138.733ZM95.2107 114.525C90.1351 107.074 101.301 99.3742 106.631 103.1C113.229 108.068 100.286 121.977 95.2107 114.525ZM208 114.525C213.076 107.074 201.909 99.3742 196.58 103.1C189.982 108.068 202.925 121.977 208 114.525ZM135.554 137.09C131.283 138.799 129.456 143.849 131.644 147.896C133.933 152.13 137.236 155.731 141.257 158.378L143.042 159.552C144.418 160.458 145.902 161.124 147.436 161.551V168.585C146.181 170.248 144.628 171.557 142.779 172.512C140.82 173.525 138.727 174.031 136.502 174.031C134.277 174.031 132.184 173.525 130.225 172.512C128.344 171.54 126.77 170.202 125.503 168.498C124.695 167.367 123.39 166.695 122 166.695C119.622 166.695 117.695 168.622 117.695 171C117.695 171.946 118.007 172.866 118.582 173.617C120.641 176.394 123.205 178.575 126.273 180.16C129.472 181.813 132.881 182.64 136.502 182.64C140.123 182.64 143.533 181.813 146.732 180.16C148.385 179.305 149.892 178.278 151.253 177.077C152.614 178.278 154.121 179.305 155.775 180.16C158.974 181.813 162.383 182.64 166.004 182.64C169.625 182.64 173.035 181.813 176.234 180.16C179.301 178.575 181.865 176.394 183.925 173.617C184.5 172.866 184.812 171.946 184.812 171C184.812 168.622 182.884 166.695 180.507 166.695C179.116 166.695 177.811 167.367 177.003 168.498C175.737 170.202 174.163 171.54 172.281 172.512C170.322 173.525 168.23 174.031 166.004 174.031C163.779 174.031 161.687 173.525 159.728 172.512C158.327 171.789 157.097 170.863 156.038 169.734C156.043 169.648 156.045 169.561 156.045 169.474C156.045 169.45 156.045 169.426 156.045 169.402V161.487C157.499 161.058 158.905 160.413 160.213 159.552L161.998 158.378C166.019 155.731 169.322 152.13 171.611 147.896C173.799 143.849 171.972 138.799 167.701 137.09L165.124 136.059C156.46 132.591 146.795 132.591 138.131 136.059L135.554 137.09ZM273.458 185C255.499 214.252 222.641 231.494 174.882 236.726C196.294 259.338 207 282.521 207 306.274C207 308.774 224 308.774 235.5 308.774H290C290.128 308.774 290.266 308.775 290.411 308.776C293.67 308.797 301 308.846 301 299.274C301 289.274 294.5 198.774 276 186.274C275.241 185.761 274.393 185.336 273.458 185ZM126.045 236.804C78.0351 231.68 44.9892 214.494 26.9073 185.247C26.2196 185.537 25.5839 185.879 25 186.274C6.5 198.774 0 289.274 0 299.274C0 308.846 7.33032 308.797 10.5887 308.776C10.7343 308.775 10.8717 308.774 11 308.774H65.5C77 308.774 94 308.774 94 306.274C94 282.547 104.682 259.391 126.045 236.804Z" fill="black"/>
<path fill-rule="evenodd" clip-rule="evenodd" d="M150.711 0.000816345C174.865 0.0573871 197.241 6.64382 217.839 19.7601C236.278 31.5024 251.665 47.3264 263.999 67.2322C275.577 85.9171 282.815 105.366 285.712 125.578C288.705 146.449 286.502 164.384 279.104 179.383C259.707 218.708 217.022 239.239 151.049 240.974C150.903 240.983 150.756 240.989 150.608 240.989C150.573 240.989 150.538 240.988 150.503 240.988C150.467 240.988 150.432 240.989 150.397 240.989C150.249 240.989 150.102 240.983 149.956 240.974C83.9835 239.239 41.2985 218.708 21.901 179.383C14.503 164.384 12.3003 146.449 15.2927 125.578C18.1906 105.366 25.4283 85.9171 37.0057 67.2322C49.3398 47.3264 64.7267 31.5024 83.1665 19.7601C103.764 6.64382 126.14 0.0573871 150.294 0.000816345C150.328 0.000271881 150.363 1.19812e-10 150.397 1.19812e-10C150.423 -1.58826e-07 150.449 0.000157833 150.475 0.000473023L150.503 0.000492096L150.53 0.000473023C150.556 0.000157833 150.582 -1.58826e-07 150.608 1.19812e-10C150.642 1.19812e-10 150.677 0.000271881 150.711 0.000816345Z" fill="white"/>
<path fill-rule="evenodd" clip-rule="evenodd" d="M63.6315 125.733C41.4921 92.8291 90.1991 58.829 113.446 75.2806C123.192 83.0839 123.838 90.6171 120.825 99.2251C117.812 107.619 108.988 110.847 100.379 117.089C92.5713 122.749 96.7203 131.939 88.5419 136.028C82.6008 138.999 69.1664 133.958 63.6315 125.733ZM180.46 99.2251C177.447 90.6171 178.093 83.0839 187.839 75.2806C211.086 58.829 259.793 92.8291 237.654 125.733C232.119 133.958 218.684 138.999 212.743 136.028C204.565 131.939 208.714 122.749 200.906 117.089C192.297 110.847 183.473 107.619 180.46 99.2251ZM105.631 90.1001C100.301 86.3743 89.1349 94.0741 94.2105 101.525C99.2858 108.977 112.229 95.0681 105.631 90.1001ZM207 101.525C201.925 108.977 188.982 95.0681 195.58 90.1001C200.909 86.3743 212.076 94.0741 207 101.525ZM117.582 160.617C117.007 159.866 116.695 158.946 116.695 158C116.695 155.622 118.622 153.695 121 153.695C122.39 153.695 123.695 154.367 124.503 155.498C125.77 157.202 127.344 158.54 129.225 159.512C131.184 160.525 133.277 161.031 135.502 161.031C137.727 161.031 139.82 160.525 141.779 159.512C143.628 158.557 145.181 157.248 146.436 155.585V148.551C144.902 148.124 143.418 147.458 142.042 146.552L140.257 145.378C136.236 142.731 132.933 139.13 130.644 134.896C128.456 130.849 130.283 125.799 134.554 124.09L137.131 123.059C145.795 119.591 155.46 119.591 164.124 123.059L166.701 124.09C170.972 125.799 172.799 130.849 170.611 134.896C168.322 139.13 165.019 142.731 160.998 145.378L159.213 146.552C157.905 147.413 156.499 148.058 155.045 148.487V156.474C155.045 156.561 155.043 156.648 155.038 156.734C156.097 157.863 157.327 158.789 158.728 159.512C160.687 160.525 162.779 161.031 165.004 161.031C167.23 161.031 169.322 160.525 171.281 159.512C173.163 158.54 174.737 157.202 176.003 155.498C176.811 154.367 178.116 153.695 179.507 153.695C181.884 153.695 183.812 155.622 183.812 158C183.812 158.946 183.5 159.866 182.925 160.617C180.865 163.394 178.301 165.575 175.234 167.16C172.035 168.813 168.625 169.64 165.004 169.64C161.383 169.64 157.974 168.813 154.775 167.16C153.121 166.305 151.614 165.278 150.253 164.077C148.892 165.278 147.385 166.305 145.732 167.16C142.533 168.813 139.123 169.64 135.502 169.64C131.881 169.64 128.472 168.813 125.273 167.16C122.205 165.575 119.641 163.394 117.582 160.617Z" fill="black"/>
</svg>
