<?xml version="1.0" encoding="utf-8"?>
<!-- Generator: Adobe Illustrator 28.1.0, SVG Export Plug-In . SVG Version: 6.00 Build 0)  -->
<svg version="1.1" xmlns="http://www.w3.org/2000/svg" xmlns:xlink="http://www.w3.org/1999/xlink" x="0px" y="0px"
	 viewBox="0 0 1431.5 200" style="enable-background:new 0 0 1431.5 200;" xml:space="preserve">
<style type="text/css">
	.st0{fill:#29A3DA;}
	.st1{fill:url(#SVGID_1_);}
	.st2{fill:url(#SVGID_00000009549738079892899570000001662651658461469863_);}
</style>
<g id="Content">
</g>
<g id="wordmark">
</g>
<g id="Infinity_mark">
	<g>
		<path d="M496.5,72V31.8h-13.8v-6.1c7.9-0.2,13.4-4.6,14.7-10.7h7.6v57H496.5z"/>
		<path d="M521.1,22.8c3.7-5.5,9.4-9.2,17.5-9.2s13.8,3.6,17.5,9.2c3.8,5.6,5.1,12.9,5.1,20.7s-1.3,15.1-5.1,20.7
			c-3.7,5.5-9.4,9.2-17.5,9.2s-13.8-3.6-17.5-9.2c-3.8-5.6-5.1-12.9-5.1-20.7S517.3,28.4,521.1,22.8z M529.5,62
			c2.2,2.3,5,3.7,9.1,3.7c4,0,6.9-1.4,9.1-3.7c3.4-3.6,5-9.8,5-18.5c0-8.7-1.6-14.9-5-18.5c-2.2-2.3-5-3.7-9.1-3.7
			c-4.1,0-6.9,1.4-9.1,3.7c-3.4,3.6-5,9.8-5,18.5C524.5,52.2,526.1,58.4,529.5,62z"/>
		<path d="M575.6,22.8c3.7-5.5,9.4-9.2,17.5-9.2s13.8,3.6,17.5,9.2c3.8,5.6,5.1,12.9,5.1,20.7s-1.3,15.1-5.1,20.7
			c-3.7,5.5-9.4,9.2-17.5,9.2s-13.8-3.6-17.5-9.2c-3.8-5.6-5.1-12.9-5.1-20.7S571.9,28.4,575.6,22.8z M584.1,62
			c2.2,2.3,5,3.7,9.1,3.7c4,0,6.9-1.4,9.1-3.7c3.4-3.6,5-9.8,5-18.5c0-8.7-1.6-14.9-5-18.5c-2.2-2.3-5-3.7-9.1-3.7
			c-4.1,0-6.9,1.4-9.1,3.7c-3.4,3.6-5,9.8-5,18.5C579.1,52.2,580.7,58.4,584.1,62z"/>
		<path d="M637.4,14.4c7.6,0,14.2,6.1,14.2,13.8c0,7.8-6.6,13.9-14.2,13.9c-7.6,0-14.1-6.1-14.1-13.9
			C623.3,20.4,629.9,14.4,637.4,14.4z M630.4,72l41-57h7.9l-40.8,57H630.4z M637.4,35.1c3.9,0,6.8-2.9,6.8-7c0-4-2.9-6.9-6.8-6.9
			c-3.8,0-6.8,2.9-6.8,6.9C630.6,32.2,633.6,35.1,637.4,35.1z M672.3,45c7.6,0,14.2,6.1,14.2,13.8c0,7.8-6.6,13.9-14.2,13.9
			s-14.1-6.1-14.1-13.9C658.2,51.1,664.7,45,672.3,45z M672.3,65.7c3.9,0,6.8-2.9,6.8-7c0-4-2.9-6.9-6.8-6.9c-3.8,0-6.8,2.9-6.8,6.9
			C665.5,62.8,668.5,65.7,672.3,65.7z"/>
		<path d="M758.7,50.8c0,12.9-9,22.5-21.7,22.5c-12.7,0-21.7-9.6-21.7-22.5c0-12.9,9-22.4,21.7-22.4
			C749.7,28.3,758.7,37.9,758.7,50.8z M750.2,50.8c0-9.8-6.2-15.1-13.2-15.1c-7,0-13.2,5.3-13.2,15.1c0,9.9,6.2,15.1,13.2,15.1
			C744.1,65.9,750.2,60.6,750.2,50.8z"/>
		<path d="M777.5,72h-8.3V29.7h8.1v6.1c3.1-5.3,8.1-7.3,13-7.3c10.1,0,15.1,7.3,15.1,16.7V72h-8.3V46.6c0-5.9-2.5-10.6-9.9-10.6
			c-6.5,0-9.9,5.2-9.9,11.6V72z"/>
		<path d="M817.6,50.3v-7.2h23.9v7.2H817.6z"/>
		<path d="M859.7,50.8c0,9.7,6.1,14.9,12.9,14.9c7.9,0,10.8-5.4,11.8-8.7l7.3,3.2c-2,6.1-8.1,13.2-19.1,13.2
			c-12.3,0-21.4-9.7-21.4-22.5c0-13.2,9.2-22.4,21.3-22.4c11.3,0,17.1,7,18.8,13.5l-7.5,3.2c-1.1-4.1-4.1-9-11.4-9
			C865.9,36,859.7,40.9,859.7,50.8z"/>
		<path d="M909.8,72h-8.3V8.3h8.3v26.3c3.1-4.5,8-6.2,12.9-6.2c10.1,0,15.1,7.3,15.1,16.7V72h-8.3V46.6c0-5.9-2.5-10.6-9.9-10.6
			c-6.3,0-9.7,4.9-9.9,11.2V72z"/>
		<path d="M960.7,47.8l11.4-1.7c2.6-0.4,3.3-1.7,3.3-3.2c0-4.1-2.7-7.6-9.2-7.6c-5.8,0-9.1,3.6-9.6,8.5l-7.9-1.9
			c0.9-8.1,8.2-13.7,17.3-13.7c12.7,0,17.6,7.2,17.6,15.5V65c0,3.7,0.4,5.9,0.5,7h-8.1c-0.2-1.1-0.4-2.6-0.4-5.7
			c-1.8,3-6.1,7-13.6,7c-8.6,0-14.2-6-14.2-12.7C947.9,53.1,953.4,48.9,960.7,47.8z M975.4,53.9v-1.9l-12.9,1.9
			c-3.5,0.5-6.2,2.6-6.2,6.3c0,3.2,2.6,6.2,6.9,6.2C970,66.4,975.4,63.1,975.4,53.9z"/>
		<path d="M1000.8,7.7c3.3,0,6,2.6,6,6c0,3.3-2.6,5.9-6,5.9c-3.3,0-5.9-2.6-5.9-5.9C994.9,10.3,997.5,7.7,1000.8,7.7z M996.7,72
			V29.7h8.2V72H996.7z"/>
		<path d="M1026.6,72h-8.3V29.7h8.1v6.1c3.1-5.3,8.1-7.3,13-7.3c10.1,0,15.1,7.3,15.1,16.7V72h-8.3V46.6c0-5.9-2.5-10.6-9.9-10.6
			c-6.5,0-9.9,5.2-9.9,11.6V72z"/>
	</g>
	<g>
		<path class="st0" d="M347.8,166.2c-28.9,0-59.4-18.9-74.4-32.6c-16.4-15-61.4-63.8-61.6-64.1C182.2,36.6,142.5,0,102.9,0
			C55.2,0,13.6,33,2.8,76.8c0.8-2.9,16-43,72.9-43c28.9,0,59.4,18.9,74.4,32.6c16.4,15,61.4,63.8,61.6,64.1
			C241.3,163.4,281,200,320.6,200c47.7,0,89.3-33,100.1-76.8C419.9,126.1,404.7,166.2,347.8,166.2z"/>
		<linearGradient id="SVGID_1_" gradientUnits="userSpaceOnUse" x1="156.3071" y1="186.918" x2="17.0107" y2="42.6724">
			<stop  offset="0.2195" style="stop-color:#E51E79"/>
			<stop  offset="0.892" style="stop-color:#522780"/>
		</linearGradient>
		<path class="st1" d="M211.8,130.5c-0.1-0.1-13.1-14.2-27.6-29.5c-7.9,9.3-19.2,22-32.2,33.4c-24.3,21.3-40,25.7-49,25.7
			c-34,0-61.8-27-61.8-60.1c0-33,27.7-59.9,61.8-60.1c1.2,0,2.7,0.1,4.5,0.4c-10.2-3.9-21.1-6.5-31.7-6.5c-56.9,0-72.1,40.1-72.9,43
			c0,0,0,0,0,0C1,84.2,0,92,0,100c0,55.1,45.5,100,102.2,100c23.6,0,50.1-12.1,77.4-36c12.9-11.3,24.1-23.4,32.5-33.1
			C212,130.7,211.9,130.6,211.8,130.5z"/>
		
			<linearGradient id="SVGID_00000124860990094361740040000003961086864019259321_" gradientUnits="userSpaceOnUse" x1="1673.8754" y1="1042.7167" x2="1534.579" y2="898.471" gradientTransform="matrix(-1 0 0 -1 1941.0081 1055.8851)">
			<stop  offset="0.21" style="stop-color:#E95A24"/>
			<stop  offset="0.6841" style="stop-color:#F3A83B"/>
		</linearGradient>
		<path style="fill:url(#SVGID_00000124860990094361740040000003961086864019259321_);" d="M211.8,69.5c0.1,0.1,13.1,14.2,27.6,29.5
			c7.9-9.3,19.2-22,32.2-33.4c24.3-21.3,40-25.7,49-25.7c34,0,61.8,27,61.8,60.1c0,33-27.7,59.9-61.8,60.1c-1.2,0-2.7-0.1-4.5-0.4
			c10.2,3.9,21.1,6.5,31.7,6.5c56.9,0,72.1-40.1,72.9-43c0,0,0,0,0,0c1.8-7.5,2.8-15.2,2.8-23.2c0-55.1-46.2-100-102.9-100
			c-23.6,0-49.4,12.1-76.7,36c-12.9,11.3-24.1,23.4-32.5,33.1C211.5,69.3,211.7,69.4,211.8,69.5z"/>
	</g>
	<g>
		<path d="M487.5,174.6v-61.3H504v61.3H487.5z"/>
		<path d="M555,174.6l-21.3-36.4v36.4h-16v-61.3h18.7l19.1,33.3v-33.3h16.1v61.3H555z"/>
		<path d="M614.1,128.6v46h-16.3v-46h-17.6v-15.3h51.6v15.3H614.1z"/>
		<path d="M640.5,174.6v-61.3h39.3v14h-23.2v9.7h21.1v13.5h-21.1v9.9H680v14.3H640.5z"/>
		<path d="M691.5,174.6v-61.3h25.9c12.5,0,20.6,8.3,20.6,19.7c0,8.3-4.6,14.4-11.3,17.1l11.6,24.5h-17.6l-9.7-22.2h-3.4v22.2H691.5z
			 M714.3,139.9c4.8,0,7.4-2.8,7.4-6.7s-2.5-6.6-7.4-6.6h-6.7v13.2H714.3z"/>
		<path d="M785.7,174.6l-21.3-36.4v36.4h-16v-61.3h18.7l19.1,33.3v-33.3h16.1v61.3H785.7z"/>
		<path d="M816,174.6v-61.3h39.3v14h-23.2v9.7h21.1v13.5h-21.1v9.9h23.4v14.3H816z"/>
		<path d="M898.5,128.6v46h-16.3v-46h-17.6v-15.3h51.6v15.3H898.5z"/>
		<path d="M955.9,144c0,10.2,7.3,16.1,14.7,16.1c8.5,0,12.1-5.3,13.4-9.6l15.2,4.4c-2.4,9.1-10.6,21-28.7,21
			c-17,0-31.4-12.4-31.4-31.8c0-19.5,14.6-32.1,31.2-32.1c17.6,0,25.7,10.7,28.2,19.9l-15,5.1c-1.1-4.1-4.4-9.4-13.1-9.4
			C963.6,127.5,955.9,132.8,955.9,144z"/>
		<path d="M1035.9,112c16.9,0,31.5,12.1,31.5,32s-14.6,32-31.5,32c-16.9,0-31.5-12.1-31.5-32S1019,112,1035.9,112z M1035.9,160.3
			c7.2,0,14.8-5.1,14.8-16.4c0-11.2-7.6-16.3-14.8-16.3c-7.2,0-14.8,5.1-14.8,16.3C1021.1,155.2,1028.7,160.3,1035.9,160.3z"/>
		<path d="M1131.5,174.6v-38l-13.4,38h-12.8L1092,137v37.5h-15.4v-61.3h21.5l13.8,37.4l13.1-37.4h22.1v61.3H1131.5z"/>
		<path d="M1176.9,153.6v20.9h-16.1v-61.3h24.5c12.8,0,21.5,8.4,21.5,20.2c0,12.1-8.7,20.2-21.5,20.2H1176.9z M1183.2,140.2
			c4.2,0,7.4-2.5,7.4-6.7c0-4.3-3.1-6.7-7.4-6.7h-6.2v13.4H1183.2z"/>
		<path d="M1215.2,152.1v-38.8h16.2v38.3c0,6.1,3.1,9.3,8.5,9.3s8.4-3.2,8.4-9.3v-38.3h16.2v38.8c0,15.4-10.3,23.9-24.6,23.9
			S1215.2,167.5,1215.2,152.1z"/>
		<path d="M1307,128.6v46h-16.3v-46h-17.6v-15.3h51.6v15.3H1307z"/>
		<path d="M1333.3,174.6v-61.3h39.3v14h-23.2v9.7h21.1v13.5h-21.1v9.9h23.4v14.3H1333.3z"/>
		<path d="M1384.8,174.6v-61.3h25.9c12.5,0,20.6,8.3,20.6,19.7c0,8.3-4.6,14.4-11.3,17.1l11.6,24.5H1414l-9.7-22.2h-3.4v22.2H1384.8
			z M1407.6,139.9c4.8,0,7.4-2.8,7.4-6.7s-2.5-6.6-7.4-6.6h-6.7v13.2H1407.6z"/>
	</g>
</g>
</svg>
