<svg xmlns="http://www.w3.org/2000/svg" width="284" height="49" fill="none"><path fill="#11C291" d="M3.318 39V11h6.495v28H3.318Zm26.538.471q-3.264 0-6.04-1.06-2.775-1.06-4.815-3.008-2.04-1.948-3.175-4.592-1.135-2.643-1.135-5.811t1.135-5.811q1.136-2.644 3.188-4.592 2.052-1.948 4.827-3.008t6.039-1.06q3.637 0 6.588 1.26 2.95 1.258 4.934 3.688l-4.15 3.848q-1.433-1.633-3.198-2.468-1.766-.836-3.863-.836-1.963 0-3.597.649-1.635.649-2.833 1.846-1.197 1.198-1.858 2.848-.662 1.65-.662 3.636 0 1.986.662 3.636.66 1.65 1.858 2.848 1.198 1.197 2.833 1.847 1.634.648 3.597.648 2.097 0 3.863-.835 1.765-.837 3.198-2.493l4.15 3.848q-1.983 2.414-4.934 3.694-2.95 1.278-6.612 1.278ZM45.758 39V11h12.104q3.776 0 6.502 1.22 2.728 1.22 4.203 3.503 1.476 2.283 1.476 5.426 0 3.12-1.476 5.395-1.475 2.276-4.203 3.503-2.727 1.228-6.502 1.228h-8.505l2.896-2.906V39h-6.495Zm6.495-9.928-2.896-3.073h8.17q2.974 0 4.47-1.278 1.495-1.28 1.495-3.572 0-2.316-1.496-3.594-1.495-1.278-4.468-1.278h-8.171l2.896-3.073v15.868ZM87.181 39v-4.194l-.375-.944v-7.504q0-2.01-1.222-3.116-1.22-1.105-3.758-1.105-1.698 0-3.363.532-1.664.532-2.841 1.453l-2.228-4.343q1.775-1.272 4.25-1.936 2.475-.664 5.035-.664 4.94 0 7.653 2.315 2.714 2.314 2.714 7.215V39h-5.865Zm-6.538.304q-2.511 0-4.311-.848-1.8-.848-2.756-2.327-.957-1.48-.957-3.336 0-1.902.935-3.346.935-1.444 2.974-2.264 2.04-.821 5.319-.821h5.694v3.636H82.54q-2.213 0-3.03.714-.817.713-.817 1.826 0 1.17.93 1.876.93.705 2.558.705 1.572 0 2.822-.73 1.251-.729 1.804-2.195l.943 2.897q-.665 2.054-2.466 3.133-1.8 1.08-4.64 1.08Zm31.102-22.125q2.568 0 4.584 1.008 2.016 1.007 3.183 3.107 1.169 2.1 1.169 5.395V39h-6.24V27.621q0-2.595-1.143-3.828-1.142-1.235-3.203-1.235-1.499 0-2.678.625-1.178.625-1.831 1.899t-.653 3.276V39h-6.24V17.482h5.945v5.966l-1.117-1.792q1.16-2.19 3.315-3.333 2.156-1.144 4.909-1.144Zm23.962 22.125q-3.009 0-5.453-1.368-2.445-1.368-3.86-3.848-1.416-2.48-1.416-5.855 0-3.375 1.416-5.854 1.415-2.48 3.86-3.84 2.444-1.36 5.453-1.36 2.735 0 4.768 1.196t3.166 3.635q1.134 2.44 1.134 6.223 0 3.775-1.086 6.235-1.085 2.46-3.11 3.648-2.025 1.188-4.872 1.188Zm1.074-5.11q1.555 0 2.789-.709 1.235-.71 1.968-2.063.734-1.355.734-3.189 0-1.874-.734-3.2-.733-1.327-1.968-2.036-1.234-.71-2.789-.71-1.555 0-2.79.71-1.234.71-1.968 2.035-.733 1.327-.733 3.201 0 1.834.733 3.189.734 1.354 1.968 2.063 1.235.71 2.79.71ZM142.455 39v-4.408l.105-6.383-.4-6.383V9.32h6.24V39h-5.945Zm24.886 0v-4.194l-.375-.944v-7.504q0-2.01-1.222-3.116-1.221-1.105-3.758-1.105-1.698 0-3.363.532-1.664.532-2.841 1.453l-2.228-4.343q1.775-1.272 4.25-1.936 2.475-.664 5.035-.664 4.94 0 7.653 2.315 2.714 2.314 2.714 7.215V39h-5.865Zm-6.538.304q-2.511 0-4.311-.848-1.8-.848-2.756-2.327-.957-1.48-.957-3.336 0-1.902.935-3.346.935-1.444 2.974-2.264 2.039-.821 5.319-.821h5.694v3.636h-5.002q-2.213 0-3.03.714-.817.713-.817 1.826 0 1.17.931 1.876.929.705 2.557.705 1.572 0 2.823-.73 1.25-.729 1.803-2.195l.943 2.897q-.665 2.054-2.466 3.133-1.8 1.08-4.64 1.08Z"/><path fill="#131514" d="M190.598 39V11h12.714q4.583 0 8.059 1.736 3.475 1.736 5.427 4.868 1.951 3.132 1.951 7.388 0 4.255-1.951 7.396-1.952 3.14-5.427 4.876Q207.895 39 203.312 39h-12.714Zm6.495-5.308h5.915q2.804 0 4.856-1.062 2.051-1.062 3.193-3.02 1.142-1.959 1.142-4.618 0-2.683-1.142-4.621-1.142-1.94-3.193-3.001-2.052-1.062-4.856-1.062h-5.915v17.384ZM219.546 39l12.481-28h6.409l12.505 28h-6.767l-10.272-24.703h2.571L226.201 39h-6.655Zm6.266-5.99 1.7-4.917h14.426l1.723 4.917h-17.849Zm41.249 6.461q-3.307 0-6.115-1.08-2.808-1.08-4.868-3.035-2.06-1.957-3.204-4.594-1.143-2.638-1.143-5.77 0-3.131 1.143-5.758 1.144-2.627 3.207-4.589 2.062-1.963 4.862-3.04 2.799-1.076 6.105-1.076 3.319 0 6.104 1.072 2.786 1.072 4.844 3.027 2.057 1.955 3.201 4.59 1.144 2.635 1.144 5.777 0 3.142-1.144 5.786-1.144 2.643-3.201 4.595-2.058 1.95-4.844 3.023-2.785 1.072-6.091 1.072Zm-.014-5.492q1.876 0 3.464-.652 1.588-.653 2.772-1.85 1.184-1.199 1.845-2.844.661-1.645.661-3.64t-.658-3.63q-.658-1.637-1.843-2.836-1.185-1.2-2.775-1.853-1.589-.653-3.465-.653-1.875 0-3.471.654t-2.785 1.855q-1.189 1.2-1.85 2.839-.661 1.637-.661 3.623 0 1.986.66 3.631.66 1.645 1.847 2.852 1.187 1.206 2.785 1.856 1.598.648 3.474.648Z"/></svg>