<svg xmlns="http://www.w3.org/2000/svg" width="800" height="800" fill="none"><defs><clipPath id="a"><rect width="800" height="800" rx="400"/></clipPath></defs><g clip-path="url(#a)"><rect width="800" height="800" fill="#FFF" rx="400"/><path fill="#000" d="M313.356 361.872c-54.006-38.22-167.162 40.769-115.728 117.21 12.859 19.11 44.07 30.819 57.872 23.918 19-9.5 9.361-30.85 27.5-44 20-14.5 40.5-22 47.5-41.5 7-20 5.5-37.5-17.144-55.628ZM486.189 361.872c54.006-38.22 167.162 40.769 115.728 117.21-12.859 19.11-44.07 30.819-57.872 23.918-19-9.5-9.361-30.85-27.5-44-20-14.5-40.5-22-47.5-41.5-7-20-5.5-37.5 17.144-55.628Z"/><path fill="#FFF" d="M295.201 396.3c-12.381-8.656-38.323 9.232-26.531 26.543 11.791 17.311 41.86-15.003 26.531-26.543ZM504.171 396.3c12.382-8.656 38.323 9.232 26.532 26.543-11.792 17.311-41.861-15.003-26.532-26.543Z"/><path fill="#000" d="M353.311 500.37c-5.082-9.402-.837-21.133 9.085-25.104l5.987-2.396a84.382 84.382 0 0 1 62.71 0l5.987 2.396c9.922 3.97 14.167 15.702 9.085 25.103a67.695 67.695 0 0 1-22.334 24.352l-4.147 2.729a36.284 36.284 0 0 1-39.892 0l-4.147-2.729a67.69 67.69 0 0 1-22.334-24.352Z"/><path fill="#000" fill-rule="evenodd" d="M399.893 188.143q.396 0 .792-.02.395-.02.79-.058.393-.039.785-.097t.78-.135q.388-.077.772-.174.385-.096.763-.21.38-.116.752-.25.373-.133.74-.284.365-.152.723-.32.358-.17.707-.357.35-.187.69-.39.338-.204.668-.424t.647-.456q.318-.235.624-.487.306-.25.6-.517.293-.266.573-.546.28-.28.546-.573.266-.293.517-.6.251-.306.487-.624t.456-.647q.22-.33.423-.669.204-.34.391-.689.186-.349.356-.707.17-.358.32-.724.152-.365.285-.738.134-.373.25-.752.114-.379.21-.763.096-.384.173-.772.077-.389.136-.78.058-.392.097-.786.038-.394.058-.79.02-.395.02-.791t-.02-.792q-.02-.395-.058-.79-.039-.393-.097-.785-.059-.392-.136-.78-.077-.388-.173-.773-.096-.384-.21-.763-.116-.378-.25-.751-.133-.373-.285-.739-.15-.366-.32-.724t-.356-.707q-.187-.35-.39-.689-.204-.34-.424-.669t-.456-.647q-.236-.318-.487-.624-.25-.306-.517-.6-.266-.293-.546-.573-.28-.28-.574-.546-.293-.266-.599-.517t-.624-.487q-.318-.236-.647-.456-.33-.22-.669-.423-.34-.204-.689-.39-.349-.187-.707-.357-.358-.169-.724-.32-.366-.152-.739-.285-.373-.134-.752-.249-.378-.115-.763-.21-.384-.097-.772-.174-.388-.078-.78-.136-.392-.058-.786-.097-.394-.038-.789-.058-.396-.02-.792-.02-.13 0-.262.003-47.015.037-91.226 13.413-41.643 12.6-79.336 36.568-35.43 22.532-65.748 54.05-28.756 29.894-51.182 66.039-21.634 34.867-35.734 72.856-13.928 37.526-19.271 74.748-5.433 37.84-1.489 71.9 4.132 35.683 18.23 64.226 37.279 75.473 120.26 114.586 80.881 38.124 205.101 41.242h.002q.328.014.655.014.396 0 .792-.02.395-.02.79-.058.393-.04.785-.097.392-.058.78-.135.388-.078.772-.174.385-.096.763-.211.38-.115.752-.248.373-.134.74-.285.365-.152.723-.321.358-.17.707-.356.35-.187.69-.39.338-.204.668-.424t.647-.456q.318-.236.624-.487t.6-.517q.293-.266.573-.546.28-.28.546-.573.266-.294.517-.6t.487-.624q.236-.318.456-.647.22-.33.423-.67.204-.34.391-.688.186-.35.356-.707.17-.358.32-.724.152-.366.285-.738.134-.373.25-.752.114-.38.21-.763.096-.384.173-.773.077-.388.136-.78.058-.391.097-.785.038-.394.058-.79.02-.395.02-.791 0-.394-.02-.787-.019-.393-.058-.785-.038-.392-.095-.781-.058-.39-.134-.776-.076-.386-.172-.768-.095-.382-.208-.76-.114-.376-.246-.747t-.28-.735q-.15-.364-.319-.72-.167-.356-.352-.704-.184-.348-.386-.686-.2-.338-.418-.666-.218-.328-.45-.646-.235-.317-.483-.622-.249-.305-.512-.598t-.54-.572q-.277-.28-.567-.546-.29-.266-.594-.517-.303-.251-.618-.487-.314-.237-.64-.457-.327-.221-.663-.425-.336-.205-.682-.392-.346-.188-.7-.36-.356-.17-.719-.323-.362-.153-.732-.288-.37-.135-.745-.252-.376-.117-.757-.216-.38-.1-.767-.18-.385-.078-.774-.14-.389-.06-.78-.102-.392-.042-.785-.065t-.787-.027q-117.42-2.947-192.154-38.173-72.798-34.314-105.09-99.693-11.621-23.527-15.11-53.653-3.463-29.905 1.375-63.605 4.854-33.812 17.584-68.11 12.973-34.954 32.901-67.072 20.63-33.247 47.021-60.684 27.638-28.734 59.81-49.192 33.96-21.595 71.368-32.913 39.65-11.996 81.902-12.031.122.002.245.002Z"/><path fill="#000" fill-rule="evenodd" d="M399.894 188.143q-.396 0-.792-.02-.395-.02-.79-.058-.393-.039-.785-.097t-.78-.135q-.388-.077-.772-.174-.385-.096-.763-.21-.38-.116-.752-.25-.373-.133-.74-.284-.365-.152-.723-.32-.358-.17-.707-.357-.35-.187-.69-.39-.338-.204-.668-.424t-.647-.456q-.318-.235-.624-.487-.306-.25-.6-.517-.293-.266-.573-.546-.28-.28-.546-.573-.266-.293-.517-.6-.251-.306-.487-.624t-.456-.647q-.22-.33-.423-.669-.204-.34-.391-.689-.186-.349-.356-.707-.17-.358-.32-.724-.152-.365-.285-.738-.134-.373-.25-.752-.114-.379-.21-.763-.096-.384-.173-.772-.077-.389-.136-.78-.058-.392-.097-.786-.038-.394-.058-.79-.02-.395-.02-.791t.02-.792q.02-.395.058-.79.039-.393.097-.785.059-.392.136-.78.077-.388.173-.773.096-.384.21-.763.116-.378.25-.751.133-.373.285-.739.15-.366.32-.724t.356-.707q.187-.35.39-.689.204-.34.424-.669t.456-.647q.236-.318.487-.624.25-.306.517-.6.266-.293.546-.573.28-.28.574-.546.293-.266.599-.517t.624-.487q.318-.236.647-.456.33-.22.669-.423.34-.204.689-.39.349-.187.707-.357.358-.169.724-.32.366-.152.739-.285.373-.134.752-.249.378-.115.763-.21.384-.097.772-.174.388-.078.78-.136.392-.058.786-.097.394-.038.789-.058.396-.02.792-.02.13 0 .262.003 47.015.037 91.226 13.413 41.643 12.6 79.336 36.568 35.43 22.532 65.748 54.05 28.755 29.894 51.182 66.039 21.634 34.867 35.734 72.856 13.927 37.526 19.271 74.748 5.433 37.84 1.489 71.9-4.132 35.683-18.23 64.226-37.28 75.473-120.26 114.586-80.881 38.124-205.101 41.242h-.002q-.328.014-.655.014-.396 0-.792-.02-.395-.02-.79-.058-.393-.04-.785-.097-.392-.058-.78-.135-.388-.078-.772-.174-.385-.096-.763-.211-.38-.115-.752-.248-.373-.134-.74-.285-.365-.152-.723-.321-.358-.17-.707-.356-.35-.187-.69-.39-.338-.204-.668-.424t-.647-.456q-.318-.236-.624-.487t-.6-.517q-.293-.266-.573-.546-.28-.28-.546-.573-.266-.294-.517-.6t-.487-.624q-.236-.318-.456-.647-.22-.33-.423-.67-.204-.34-.391-.688-.186-.35-.356-.707-.17-.358-.32-.724-.152-.366-.285-.738-.134-.373-.25-.752-.114-.38-.21-.763-.096-.384-.173-.773-.077-.388-.136-.78-.058-.391-.097-.785-.038-.394-.058-.79-.02-.395-.02-.791 0-.394.02-.787.019-.393.058-.785.038-.392.095-.781.058-.39.134-.776.076-.386.172-.768.095-.382.208-.76.114-.376.246-.747t.28-.735q.15-.364.319-.72.167-.356.352-.704.184-.348.386-.686.2-.338.418-.666.218-.328.45-.646.235-.317.483-.622.249-.305.512-.598t.54-.572q.277-.28.567-.546.29-.266.594-.517.303-.251.618-.487.314-.237.64-.457.327-.221.663-.425.336-.205.682-.392.346-.188.7-.36.356-.17.719-.323.362-.153.732-.288.37-.135.745-.252.376-.117.757-.216.38-.1.767-.18.385-.078.774-.14.389-.06.78-.102.392-.042.785-.065t.787-.027q117.42-2.947 192.154-38.173 72.797-34.314 105.09-99.693 11.621-23.527 15.11-53.653 3.463-29.905-1.375-63.605-4.855-33.812-17.584-68.11-12.974-34.954-32.901-67.072-20.63-33.247-47.021-60.684-27.638-28.734-59.81-49.192-33.96-21.595-71.368-32.913-39.65-11.996-81.902-12.031-.122.002-.245.002ZM272.279 219.12l-61.639 31.44-58.931 54.349-23.642 50.988q-1.627-.82-3.224-1.695-1.597-.876-3.164-1.806-1.566-.93-3.099-1.914-1.533-.983-3.032-2.019-1.498-1.036-2.96-2.123-1.462-1.087-2.885-2.224-1.423-1.136-2.807-2.321-1.383-1.186-2.725-2.418-1.341-1.232-2.64-2.51-1.298-1.277-2.552-2.599-1.253-1.322-2.46-2.686-1.208-1.364-2.367-2.769-1.16-1.405-2.27-2.849-1.11-1.444-2.17-2.926-1.06-1.481-2.068-2.999-1.008-1.517-1.963-3.068-.955-1.551-1.856-3.134-.901-1.583-1.747-3.197-.846-1.613-1.636-3.254-.79-1.642-1.522-3.31-.733-1.667-1.408-3.359-.675-1.692-1.29-3.407-.617-1.714-1.173-3.449-.557-1.734-1.053-3.487-.496-1.752-.932-3.521-.436-1.769-.81-3.552-.374-1.782-.687-3.577-.313-1.794-.563-3.599-.25-1.804-.439-3.616-.188-1.812-.314-3.629-.125-1.817-.188-3.638Q70 263.422 70 261.6q0-2.592.127-5.182.127-2.589.381-5.169.255-2.58.635-5.144t.886-5.106q.506-2.543 1.136-5.058.63-2.514 1.382-4.995.753-2.48 1.626-4.922.873-2.44 1.865-4.835t2.1-4.739q1.11-2.343 2.331-4.63 1.222-2.286 2.555-4.51 1.333-2.223 2.773-4.378 1.44-2.156 2.984-4.238 1.544-2.082 3.19-4.086 1.644-2.004 3.385-3.925 1.74-1.92 3.574-3.754 1.833-1.833 3.753-3.573 1.921-1.741 3.925-3.386 2.004-1.644 4.086-3.189 2.082-1.544 4.238-2.984 2.155-1.44 4.379-2.773 2.223-1.333 4.51-2.555 2.286-1.222 4.63-2.33 2.343-1.109 4.738-2.1 2.395-.993 4.835-1.866 2.441-.873 4.922-1.626 2.48-.752 4.995-1.382 2.515-.63 5.058-1.136 2.542-.506 5.106-.886 2.565-.38 5.144-.635 2.58-.254 5.169-.38 2.59-.128 5.182-.128 1.909 0 3.817.069 1.907.069 3.811.207 1.904.138 3.802.344 1.898.207 3.787.482t3.766.618q1.878.343 3.742.754 1.865.411 3.713.889 1.848.478 3.678 1.022 1.829.545 3.638 1.155t3.594 1.285q1.786.675 3.546 1.415 1.76.739 3.492 1.541 1.732.803 3.434 1.667 1.702.864 3.372 1.79 1.669.925 3.304 1.91 1.635.985 3.234 2.029 1.598 1.044 3.158 2.144 1.56 1.1 3.078 2.257 1.519 1.157 2.995 2.367 1.476 1.21 2.908 2.474 1.431 1.262 2.816 2.576 1.385 1.314 2.721 2.678 1.336 1.363 2.623 2.773 1.286 1.41 2.52 2.867 1.235 1.456 2.416 2.956 1.181 1.5 2.307 3.04 1.126 1.542 2.195 3.123 1.07 1.582 2.082 3.2 1.011 1.619 1.964 3.273.953 1.655 1.845 3.342.892 1.688 1.722 3.407.831 1.718 1.599 3.466Z"/><path fill="#000" fill-rule="evenodd" d="m527.2 219.12 61.639 31.44 58.93 54.349 23.642 50.988q1.627-.82 3.224-1.695 1.598-.876 3.164-1.806t3.1-1.914q1.533-.983 3.031-2.019 1.499-1.036 2.96-2.123 1.462-1.087 2.885-2.224 1.424-1.136 2.807-2.321 1.384-1.186 2.725-2.418 1.342-1.232 2.64-2.51 1.299-1.277 2.552-2.599 1.254-1.322 2.46-2.686 1.208-1.364 2.368-2.769 1.159-1.405 2.27-2.849 1.11-1.444 2.17-2.926 1.06-1.481 2.067-2.999 1.008-1.517 1.963-3.068.956-1.551 1.857-3.134.9-1.583 1.747-3.197.846-1.613 1.636-3.254.79-1.642 1.522-3.31.733-1.667 1.407-3.359.675-1.692 1.291-3.407.616-1.714 1.173-3.449.556-1.734 1.053-3.487.496-1.752.932-3.521.435-1.769.81-3.552.374-1.782.687-3.577.312-1.794.563-3.599.25-1.804.439-3.616.188-1.812.313-3.629.126-1.817.189-3.638.063-1.82.063-3.642 0-2.592-.128-5.182-.127-2.589-.381-5.169-.254-2.58-.634-5.144t-.887-5.106q-.505-2.543-1.135-5.058-.63-2.514-1.383-4.995-.752-2.48-1.625-4.922-.874-2.44-1.866-4.835-.992-2.395-2.1-4.739-1.109-2.343-2.33-4.63-1.223-2.286-2.555-4.51-1.333-2.223-2.773-4.378-1.44-2.156-2.985-4.238-1.544-2.082-3.189-4.086-1.644-2.004-3.385-3.925-1.741-1.92-3.574-3.754-1.833-1.833-3.754-3.573-1.92-1.741-3.925-3.386-2.003-1.644-4.086-3.189-2.082-1.544-4.237-2.984-2.156-1.44-4.38-2.773-2.223-1.333-4.509-2.555-2.286-1.222-4.63-2.33-2.343-1.109-4.738-2.1-2.395-.993-4.836-1.866-2.44-.873-4.921-1.626-2.481-.752-4.996-1.382-2.514-.63-5.057-1.136-2.542-.506-5.107-.886-2.564-.38-5.144-.635-2.58-.254-5.168-.38-2.59-.128-5.182-.128-1.91 0-3.817.069-1.907.069-3.811.207-1.904.138-3.802.344-1.898.207-3.787.482-1.89.275-3.766.618-1.878.343-3.742.754-1.865.411-3.713.889-1.848.478-3.678 1.022-1.83.545-3.638 1.155-1.81.61-3.594 1.285-1.786.675-3.546 1.415-1.76.739-3.492 1.541-1.732.803-3.434 1.667-1.702.864-3.372 1.79-1.67.925-3.304 1.91-1.635.985-3.234 2.029-1.598 1.044-3.158 2.144-1.56 1.1-3.078 2.257-1.52 1.157-2.995 2.367-1.476 1.21-2.908 2.474-1.431 1.262-2.816 2.576-1.385 1.314-2.721 2.678-1.336 1.363-2.623 2.773-1.286 1.41-2.52 2.867-1.235 1.456-2.416 2.956-1.181 1.5-2.307 3.04-1.126 1.542-2.195 3.123-1.07 1.582-2.082 3.2-1.011 1.619-1.964 3.273-.953 1.655-1.845 3.342-.892 1.688-1.722 3.407-.831 1.718-1.6 3.466ZM390 523.5v27q0 .245.012.49.012.246.036.49.024.245.06.487.036.243.084.484.048.24.108.479.06.238.13.473.072.235.155.466.082.231.176.458.094.227.2.448.104.222.22.439.116.216.242.427.126.21.262.415.137.204.283.401.146.197.302.387t.32.372q.165.182.339.355.174.174.355.338.182.165.372.321t.387.302q.197.146.401.283.204.136.415.262.21.126.427.242.217.116.438.22.222.106.45.2.226.094.457.176.231.083.466.154.235.072.473.131.238.06.48.108.24.048.483.084.243.036.487.06t.49.036q.245.012.49.012t.49-.012q.246-.012.49-.036.244-.024.487-.06t.484-.084q.24-.048.479-.108.238-.06.473-.13.235-.072.466-.155.231-.082.458-.176.227-.094.449-.2.221-.104.438-.22.216-.115.427-.242.21-.126.415-.262.204-.137.401-.283.197-.146.387-.302t.372-.32q.181-.165.355-.339.174-.173.339-.355.164-.182.32-.372t.302-.387q.146-.197.283-.401.136-.204.262-.415.126-.21.242-.427.116-.217.22-.439.106-.221.2-.448.094-.227.176-.458.083-.231.154-.466.072-.235.131-.473.06-.238.108-.48.048-.24.084-.483.036-.242.06-.487.024-.244.036-.49.012-.245.012-.49v-27q0-.245-.012-.49-.012-.246-.036-.49-.024-.244-.06-.487t-.084-.484q-.048-.24-.108-.479-.06-.238-.13-.473-.072-.235-.155-.466-.082-.231-.176-.458-.094-.227-.2-.449-.104-.221-.22-.438-.116-.216-.242-.427-.126-.21-.262-.415-.137-.204-.283-.401-.146-.197-.302-.387t-.32-.372q-.165-.181-.339-.355-.174-.174-.355-.339-.182-.164-.372-.32t-.387-.302q-.197-.146-.401-.283-.204-.136-.415-.262-.21-.126-.427-.242-.217-.116-.438-.22-.222-.106-.45-.2-.226-.094-.457-.176-.231-.083-.466-.154-.235-.072-.473-.131-.238-.06-.48-.108-.24-.048-.483-.084-.243-.036-.487-.06t-.49-.036q-.245-.012-.49-.012t-.49.012q-.246.012-.49.036-.244.024-.487.06t-.484.084q-.24.048-.479.108-.238.06-.473.13-.235.072-.466.155-.231.082-.458.176-.227.094-.449.2-.221.104-.438.22-.216.116-.427.242-.21.126-.415.262-.204.137-.401.283-.197.146-.387.302t-.372.32q-.181.165-.355.339-.174.174-.339.355-.164.182-.32.372t-.302.387q-.146.197-.283.401-.136.204-.262.415-.126.21-.242.427-.116.217-.22.438-.106.222-.2.45-.094.226-.176.457-.083.231-.154.466-.072.235-.131.473-.06.238-.108.48-.048.24-.084.483-.036.243-.06.487t-.036.49q-.012.245-.012.49Z"/><path fill="#11C291" d="m544.08 571.59 46.463 46.463 3.037-23.072L775.022 413.54l19.38-4.355-41.454-41.454-4.354 19.38-181.442 181.442-23.072 3.037ZM316.227 799.444l46.462 46.462 3.038-23.072 196.998-196.998 19.38-4.354-41.454-41.454-4.354 19.38-196.998 196.998-23.072 3.038Z"/><path fill="#11C291" d="M682.215 499.33q-67.896-69.724-120.722-75.257 19.895 43.783 120.722 75.258Z"/><path fill="#11C291" d="M671.582 500.156q.448-69.323-23.332-98.885-11.697 31.999 23.332 98.885Z"/><path fill="#000" d="M499.727 589.395c-87.32-64.971-167.95 93.475-73.612 178.32 94.34 84.845 265.66 6.15 331.968-131.636q-99.723 67.595-258.356-46.684Z"/><path fill="#000" d="M300.272 589.395c87.32-64.971 167.951 93.475 73.612 178.32s-265.66 6.15-331.967-131.636q99.723 67.595 258.355-46.684Z"/></g></svg>