<svg xmlns="http://www.w3.org/2000/svg" xmlns:xlink="http://www.w3.org/1999/xlink" fill="none" version="1.1" width="32" height="32" viewBox="0 0 32 32"><defs><clipPath id="master_svg0_1704_01444"><rect x="0" y="0" width="32" height="32" rx="16"/></clipPath></defs><g clip-path="url(#master_svg0_1704_01444)"><rect x="0" y="0" width="32" height="32" rx="16" fill="#FFFFFF" fill-opacity="1"/><g><g><path d="M12.5342955375,14.4749413775C10.3740337375,12.946114937499999,5.8477857375,16.1057007375,7.9051642975,19.1633420375C8.4195089375,19.927752537499998,9.6679394375,20.396124337499998,10.2200389375,20.1200742375C10.9800388375,19.7400741375,10.5944836375,18.8861017375,11.320039037499999,18.3600745375C12.1200389375,17.7800743375,12.940039137500001,17.4800744375,13.2200389375,16.7000744375C13.5000391375,15.9000743375,13.440039137500001,15.2000744375,12.5342955375,14.4749413775Z" fill="#000000" fill-opacity="1"/></g><g transform="matrix(-1,0,0,1,49.2001953125,0)"><path d="M29.75255725625,14.4749413775C27.59229545625,12.946114937499999,23.06604745625,16.1057007375,25.12342601625,19.1633420375C25.63777065625,19.927752537499998,26.88620115625,20.396124337499998,27.43830065625,20.1200742375C28.19830055625,19.7400741375,27.81274535625,18.8861017375,28.53830075625,18.3600745375C29.33830065625,17.7800743375,30.15830085625,17.4800744375,30.43830065625,16.7000744375C30.71830085625,15.9000743375,30.65830085625,15.2000744375,29.75255725625,14.4749413775Z" fill="#000000" fill-opacity="1"/></g><g><path d="M11.807944884375,15.8521695139375C11.312690494375,15.5059500909375,10.275017674375,16.2214728009375,10.746685524375,16.9139089609375C11.218353514375,17.6063452609375,12.421125884375,16.3138003309375,11.807944884375,15.8521695139375Z" fill="#FFFFFF" fill-opacity="1"/></g><g transform="matrix(-1,0,0,1,42.6962890625,0)"><path d="M22.52938043125,15.8521695139375C22.03412604125,15.5059500909375,20.99645322125,16.2214728009375,21.46812107125,16.9139089609375C21.93978906125,17.6063452609375,23.14256143125,16.3138003309375,22.52938043125,15.8521695139375Z" fill="#FFFFFF" fill-opacity="1"/></g></g><g><g transform="matrix(1,0,0,-1,0,42.674072265625)"><path d="M14.1323230718125,22.6592363328125C13.9290160578125,23.0352850328125,14.0988288488125,23.5045249328125,14.4957090278125,23.6633725328125L14.7351796078125,23.7592184328125C15.540270807812501,24.0814485328125,16.4384973078125,24.0814485328125,17.2435882078125,23.7592184328125L17.4830589078125,23.6633725328125C17.8799391078125,23.5045249328125,18.0497513078125,23.0352851328125,17.8464446078125,22.6592363328125C17.6337001078125,22.2657315128125,17.3267727078125,21.9310683028125,16.9530954078125,21.6851592628125L16.7872310078125,21.5760076828125C16.3030507078125,21.2573789808125,15.675717107812499,21.2573789428125,15.1915367078125,21.5760076828125L15.0256727378125,21.6851592028125C14.6519951778125,21.9310683628125,14.3450674678125,22.2657315128125,14.1323230718125,22.6592363328125Z" fill="#000000" fill-opacity="1"/></g></g><g><g><g><path d="M2.954908370625,24.38744919921875Q5.910433340625,30.37110719921875,15.979625640625,30.62082119921875L15.979631640625,30.62057319921875Q15.987624640625,30.62077119921875,15.995619640625,30.62077119921875Q16.059133640625,30.62076919921875,16.121427640625,30.60837919921875Q16.183721640625002,30.59598519921875,16.242400640625,30.57168019921875Q16.301079640624998,30.54737519921875,16.353889640625,30.51208919921875Q16.406699640625,30.47680319921875,16.451612640625,30.43189219921875Q16.496522640625003,30.38698019921875,16.531808640625,30.33416919921875Q16.567095640625,30.28136019921875,16.591400640625,30.22268119921875Q16.615707640625,30.16400119921875,16.628099640625003,30.10170719921875Q16.640489640625,30.03941319921875,16.640490640625,29.97590019921875Q16.640491640625,29.91339719921875,16.628487640625,29.85205419921875Q16.616483640625,29.79071419921875,16.592922640624998,29.73281819921875Q16.569361640625,29.67492719921875,16.535119640625,29.62263319921875Q16.500879640625,29.57034119921875,16.457231640625,29.52559619921875Q16.413585640625,29.48085619921875,16.362158640624997,29.44532919921875Q16.310731640625,29.40980119921875,16.253438640625,29.38481119921875Q16.196145640624998,29.35982319921875,16.135120640625,29.34630219921875Q16.074094640625,29.33277919921875,16.011607640625,29.33122819921875L16.011612640625,29.33097819921875Q6.721934340624999,29.10059919921875,4.111727940625,23.81605919921875Q3.164350720625,21.898030199218752,3.562366960625,19.125735199218752Q3.964452640625,16.32509609921875,5.5817711406249995,13.718492499218751Q7.301064940625,10.94753649921875,9.855010540624999,9.32344199921875Q12.682065940625,7.52567266921875,15.995620640625,7.52567237921875L15.995620640625,7.52542519921875Q16.059133640625,7.52542519921875,16.121427640625,7.51303416921875Q16.183721640625002,7.50064318921875,16.242400640625,7.47633730921875Q16.301079640624998,7.45203142921875,16.353889640625,7.41674482921875Q16.406699640625,7.3814581592187505,16.451612640625,7.33654683921875Q16.496522640625003,7.29163547921875,16.531808640625,7.23882531921875Q16.567095640625,7.18601515921875,16.591400640625,7.12733563921875Q16.615707640625,7.06865611921875,16.628099640625003,7.00636228921875Q16.640489640625,6.94406844721875,16.640490640625,6.88055419921875Q16.640489640625,6.81703995121875,16.628099640625003,6.75474610921875Q16.615707640625,6.69245227921875,16.591400640625,6.63377275921875Q16.567094640625,6.57509323921875,16.531808640625,6.52228307921875Q16.496521640624998,6.46947291921875,16.451610640625,6.42456155921875Q16.406699640625,6.3796502392187495,16.353888640625,6.3443636292187495Q16.301078640625,6.30907702921875,16.242399640625003,6.28477114921875Q16.183720640624998,6.26046526921875,16.121427640625,6.24807422921875Q16.059133640625,6.23568319921875,15.995619640625,6.23568319921875L15.995620640625,6.23543238921875Q12.306570040625,6.23543279921875,9.162659640625,8.23469559921875Q6.360069740625001,10.01690719921875,4.485423440625,13.03824139921875Q2.725693821625,15.87436679921875,2.285222170625,18.94237619921875Q1.830348190625,22.11070219921875,2.954908370625,24.38744919921875Z" fill-rule="evenodd" fill="#000000" fill-opacity="1"/></g><g transform="matrix(-1,0,0,1,58.373046875,0)"><path d="M29.3365001675,24.38744919921875Q32.2920251375,30.37110719921875,42.3612174375,30.62082119921875L42.3612234375,30.62057319921875Q42.3692164375,30.62077119921875,42.3772114375,30.62077119921875Q42.4407254375,30.62076919921875,42.5030194375,30.60837919921875Q42.5653134375,30.59598519921875,42.6239924375,30.57168019921875Q42.6826714375,30.54737519921875,42.7354814375,30.51208919921875Q42.7882914375,30.47680319921875,42.8332044375,30.43189219921875Q42.8781144375,30.38698019921875,42.9134004375,30.33416919921875Q42.9486874375,30.28136019921875,42.9729924375,30.22268119921875Q42.997299437500004,30.16400119921875,43.0096914375,30.10170719921875Q43.0220814375,30.03941319921875,43.0220824375,29.97590019921875Q43.0220834375,29.91339719921875,43.010079437499996,29.85205419921875Q42.9980754375,29.79071419921875,42.9745144375,29.73281819921875Q42.950953437500004,29.67492719921875,42.9167114375,29.62263319921875Q42.8824714375,29.57034119921875,42.8388234375,29.52559619921875Q42.7951774375,29.48085619921875,42.7437504375,29.44532919921875Q42.6923234375,29.40980119921875,42.6350304375,29.38481119921875Q42.5777374375,29.35982319921875,42.516712437500004,29.34630219921875Q42.4556864375,29.33277919921875,42.3931994375,29.33122819921875L42.3932044375,29.33097819921875Q33.1035261375,29.10059919921875,30.4933197375,23.81605919921875Q29.5459425175,21.898030199218752,29.9439587575,19.125735199218752Q30.3460444375,16.32509609921875,31.9633629375,13.718492499218751Q33.6826567375,10.94753649921875,36.2366023375,9.32344199921875Q39.0636577375,7.52567266921875,42.3772124375,7.52567237921875L42.3772124375,7.52542519921875Q42.4407254375,7.52542519921875,42.5030194375,7.51303416921875Q42.5653134375,7.50064318921875,42.6239924375,7.47633730921875Q42.6826714375,7.45203142921875,42.7354814375,7.41674482921875Q42.7882914375,7.3814581592187505,42.8332044375,7.33654683921875Q42.8781144375,7.29163547921875,42.9134004375,7.23882531921875Q42.9486874375,7.18601515921875,42.9729924375,7.12733563921875Q42.997299437500004,7.06865611921875,43.0096914375,7.00636228921875Q43.0220814375,6.94406844721875,43.0220824375,6.88055419921875Q43.0220814375,6.81703995121875,43.0096914375,6.75474610921875Q42.997299437500004,6.69245227921875,42.9729924375,6.63377275921875Q42.9486864375,6.57509323921875,42.9134004375,6.52228307921875Q42.8781134375,6.46947291921875,42.8332024375,6.42456155921875Q42.7882914375,6.3796502392187495,42.7354804375,6.3443636292187495Q42.6826704375,6.30907702921875,42.6239914375,6.28477114921875Q42.5653124375,6.26046526921875,42.5030194375,6.24807422921875Q42.4407254375,6.23568319921875,42.3772114375,6.23568319921875L42.3772124375,6.23543238921875Q38.6881618375,6.23543279921875,35.5442514375,8.23469559921875Q32.7416615375,10.01690719921875,30.8670152375,13.03824139921875Q29.1072856185,15.87436679921875,28.6668139675,18.94237619921875Q28.2119399875,22.11070219921875,29.3365001675,24.38744919921875Z" fill-rule="evenodd" fill="#000000" fill-opacity="1"/></g></g></g><g><g><path d="M10.891218228125,8.764822034375L8.425640628124999,10.022432534375L6.068390628125,12.196380134375L5.1227441281249995,14.235889434375Q4.862093728125,14.104502634374999,4.621992928125,13.938513234375Q4.381892228125,13.772523834375,4.166905528125,13.575086134374999Q3.9519188281249997,13.377647834375,3.766133008125,13.152515434375001Q3.580347178125,12.927382434375,3.427294258125,12.678834934375Q3.274241328125,12.430287334375,3.156830848125,12.163050134375Q3.039420368125,11.895813034375,2.959884268125,11.614965934375Q2.880348183125,11.334118834375001,2.840198506125,11.045000534375Q2.800048828125,10.755882734375,2.800048828125,10.463990734374999Q2.800048828125,10.360297234375,2.805136820325,10.256729134375Q2.810224812125,10.153160534375,2.820388541125,10.049966534375Q2.830552267125,9.946772334375,2.845767241125,9.844201134375Q2.860982217125,9.741630034375,2.881211787125,9.639929034375001Q2.901441358125,9.538228034374999,2.926636788125,9.437642334374999Q2.951832218125,9.337056634375,2.981932818125,9.237828234375Q3.012033398125,9.138599634375,3.046966638125,9.040967734375Q3.081899878125,8.943335734375001,3.121581618125,8.847535634375Q3.161263348125,8.751735434375,3.2055979681249998,8.657997834375Q3.249932588125,8.564260034375,3.298813338125,8.472810734374999Q3.3476940381249998,8.381361234375,3.401003058125,8.292420434375Q3.454312088125,8.203479534374999,3.511921048125,8.117261534375Q3.569530008125,8.031043734375,3.631300088125,7.947756534375Q3.693070178125,7.864469334375,3.7588525981250003,7.784313234375Q3.824635028125,7.704157134375,3.894271128125,7.627325434375Q3.963907328125,7.550493734375,4.037229628125,7.477171334375Q4.110551928125,7.403849034375,4.187383628125,7.334212734375Q4.264215428125,7.2645766343750005,4.344371428125,7.198794244375Q4.424527428125,7.133011814375,4.507814728125,7.0712417343750005Q4.591101928125,7.009471594375,4.677319728125,6.951862634375Q4.763537728125,6.894253674375,4.852478528124999,6.840944644375Q4.941419328125,6.787635564375,5.032868828125,6.738754834375Q5.124318128125,6.689874114375,5.2180559281250005,6.645539464375Q5.3117935281249995,6.601204814375,5.407593728125001,6.561523084375Q5.503393928125,6.521841344375,5.601025628125,6.486908104375Q5.6986575281250005,6.451974864375,5.7978861281250005,6.421874274375Q5.897114228125,6.391773654375,5.997700228125,6.366578224375Q6.098285928125,6.341382784375,6.199986928125,6.321153208375Q6.301687928125,6.300923630375,6.4042592281249995,6.285708658375Q6.506830428124999,6.270493678375,6.6100247281249995,6.260329950375Q6.713218728125,6.250166220375,6.816787228125,6.245078227475Q6.920355828125,6.239990234375,7.024048828125,6.239990234375Q7.176813628125,6.239990234375,7.329179728125,6.251025588375Q7.481545428125,6.262060942375,7.632716628125,6.284073989375Q7.783887428125,6.306087039375,7.933073028125,6.338962748375Q8.082258228125,6.371838464375,8.228679228125,6.415405084375Q8.375100128125,6.458971694375,8.517991528125,6.513001564375Q8.660882928125,6.567031444375,8.799498128125,6.631242274375Q8.938113228125001,6.695453104375,9.071727228124999,6.769509374375Q9.205341828125,6.843565584375,9.333257228125,6.927080334375Q9.461173028125,7.010595084375,9.582722228125,7.103132014375Q9.704270328125,7.195668874375,9.818817128125,7.296744334375Q9.933363428125,7.397819734375,10.040308928125,7.506905834375Q10.147254928125001,7.615991734375,10.246040828125,7.732518234375Q10.344827128125,7.849044834375,10.434938428125001,7.972402934375Q10.525049228124999,8.095761034375,10.606013328125,8.225306234375001Q10.686977428125001,8.354851434375,10.758371328125001,8.489906834375Q10.829766228125,8.624962134375,10.891218228125,8.764822034375Z" fill-rule="evenodd" fill="#000000" fill-opacity="1"/></g><g transform="matrix(-1,0,0,1,58.3583984375,0)"><path d="M37.27036861875,8.764822034375L34.80479101875,10.022432534375L32.44754101875,12.196380134375L31.50189451875,14.235889434375Q31.24124411875,14.104502634374999,31.00114331875,13.938513234375Q30.76104261875,13.772523834375,30.54605591875,13.575086134374999Q30.33106921875,13.377647834375,30.14528339875,13.152515434375001Q29.95949756875,12.927382434375,29.80644464875,12.678834934375Q29.65339171875,12.430287334375,29.53598123875,12.163050134375Q29.41857075875,11.895813034375,29.33903465875,11.614965934375Q29.25949857375,11.334118834375001,29.21934889675,11.045000534375Q29.17919921875,10.755882734375,29.17919921875,10.463990734374999Q29.17919921875,10.360297234375,29.18428721095,10.256729134375Q29.18937520275,10.153160534375,29.19953893175,10.049966534375Q29.20970265775,9.946772334375,29.22491763175,9.844201134375Q29.24013260775,9.741630034375,29.26036217775,9.639929034375001Q29.28059174875,9.538228034374999,29.30578717875,9.437642334374999Q29.33098260875,9.337056634375,29.36108320875,9.237828234375Q29.39118378875,9.138599634375,29.42611702875,9.040967734375Q29.46105026875,8.943335734375001,29.50073200875,8.847535634375Q29.54041373875,8.751735434375,29.58474835875,8.657997834375Q29.62908297875,8.564260034375,29.67796372875,8.472810734374999Q29.72684442875,8.381361234375,29.78015344875,8.292420434375Q29.83346247875,8.203479534374999,29.89107143875,8.117261534375Q29.94868039875,8.031043734375,30.01045047875,7.947756534375Q30.07222056875,7.864469334375,30.13800298875,7.784313234375Q30.20378541875,7.704157134375,30.27342151875,7.627325434375Q30.34305771875,7.550493734375,30.41638001875,7.477171334375Q30.48970231875,7.403849034375,30.56653401875,7.334212734375Q30.64336581875,7.2645766343750005,30.72352181875,7.198794244375Q30.80367781875,7.133011814375,30.88696511875,7.0712417343750005Q30.97025231875,7.009471594375,31.05647011875,6.951862634375Q31.14268811875,6.894253674375,31.23162891875,6.840944644375Q31.32056971875,6.787635564375,31.41201921875,6.738754834375Q31.50346851875,6.689874114375,31.59720631875,6.645539464375Q31.69094391875,6.601204814375,31.78674411875,6.561523084375Q31.88254431875,6.521841344375,31.98017601875,6.486908104375Q32.07780791875,6.451974864375,32.17703651875,6.421874274375Q32.27626461875,6.391773654375,32.37685061875,6.366578224375Q32.47743631875,6.341382784375,32.57913731875,6.321153208375Q32.68083831875,6.300923630375,32.78340961875,6.285708658375Q32.88598081875,6.270493678375,32.98917511875,6.260329950375Q33.09236911875,6.250166220375,33.19593761875,6.245078227475Q33.29950621875,6.239990234375,33.403199218750004,6.239990234375Q33.555964018750004,6.239990234375,33.70833011875,6.251025588375Q33.86069581875,6.262060942375,34.01186701875,6.284073989375Q34.16303781875,6.306087039375,34.31222341875,6.338962748375Q34.46140861875,6.371838464375,34.60782961875,6.415405084375Q34.75425051875,6.458971694375,34.89714191875,6.513001564375Q35.04003331875,6.567031444375,35.17864851875,6.631242274375Q35.31726361875,6.695453104375,35.45087761875,6.769509374375Q35.58449221875,6.843565584375,35.71240761875,6.927080334375Q35.84032341875,7.010595084375,35.96187261875,7.103132014375Q36.08342071875,7.195668874375,36.19796751875,7.296744334375Q36.31251381875,7.397819734375,36.41945931875,7.506905834375Q36.52640531875,7.615991734375,36.625191218750004,7.732518234375Q36.72397751875,7.849044834375,36.81408881875,7.972402934375Q36.90419961875,8.095761034375,36.98516371875,8.225306234375001Q37.06612781875,8.354851434375,37.13752171875,8.489906834375Q37.208916618749996,8.624962134375,37.27036861875,8.764822034375Z" fill-rule="evenodd" fill="#000000" fill-opacity="1"/></g></g><g><path d="M15.60007998,20.939998626708984Q15.60008001,20.900609947708983,15.607764360000001,20.861978113708986Q15.61544871,20.823346276708985,15.63052213,20.786955896708985Q15.64559555,20.750565496708983,15.66747868,20.717814996708984Q15.68936187,20.685064496708986,15.71721387,20.657212496708983Q15.74506587,20.629360496708983,15.77781639,20.607477336708985Q15.81056687,20.585594176708984,15.84695727,20.570520756708984Q15.88334765,20.555447336708983,15.921979487,20.547762986708985Q15.960611321,20.540078636708984,16,20.540078606708985Q16.039388679,20.540078636708984,16.078020513,20.547762986708985Q16.11665235,20.555447336708983,16.15304273,20.570520756708984Q16.18943313,20.585594176708984,16.22218363,20.607477306708983Q16.25493413,20.629360496708983,16.28278613,20.657212496708983Q16.31063813,20.685064496708986,16.33252129,20.717815016708986Q16.35440445,20.750565496708983,16.36947787,20.786955896708985Q16.38455129,20.823346276708985,16.39223564,20.861978113708986Q16.39991999,20.900609947708983,16.39992002,20.939998626708984L16.39999998,20.939998626708984L16.39999998,22.019998526708985L16.39992002,22.019998526708985Q16.39991999,22.059387226708985,16.39223564,22.098018926708985Q16.38455129,22.136650826708983,16.36947787,22.173041126708984Q16.35440445,22.209431526708983,16.33252132,22.242182026708985Q16.31063813,22.274932526708984,16.28278613,22.302784526708983Q16.25493413,22.330636526708986,16.22218361,22.352519526708985Q16.18943313,22.374402726708986,16.15304273,22.389476326708984Q16.11665235,22.404549626708985,16.078020513,22.412234026708983Q16.039388679,22.419918426708985,16,22.419918526708983Q15.960611321,22.419918426708985,15.921979487,22.412234026708983Q15.88334765,22.404549626708985,15.84695727,22.389476326708984Q15.81056687,22.374402726708986,15.77781637,22.352519626708983Q15.74506587,22.330636526708986,15.71721387,22.302784526708983Q15.68936187,22.274932526708984,15.66747871,22.242182026708985Q15.64559555,22.209431526708983,15.63052213,22.173041126708984Q15.61544871,22.136650826708983,15.607764360000001,22.098018926708985Q15.60008001,22.059387226708985,15.60007998,22.019998526708985L15.60000002,22.019998526708985L15.60000002,20.939998626708984L15.60007998,20.939998626708984Z" fill-rule="evenodd" fill="#000000" fill-opacity="1"/></g><g transform="matrix(0.7071067690849304,0.7071067690849304,-0.7071067690849304,0.7071067690849304,16.16305061467392,-15.721067291689906)"><g><g><path d="M31.2435302734375,23.323661896484374L33.8718530734375,23.323663896484376L33.3051919734375,22.585214896484374L33.3051919734375,12.321313376484374L33.7301850734375,11.649993896484375L31.3851962134375,11.649993896484375L31.8101940134375,12.321313146484375L31.8101912734375,22.585211896484374L31.2435302734375,23.323661896484374Z" fill="#11C291" fill-opacity="1"/></g><g><path d="M31.2432861328125,36.213001275390624L33.8716089328125,36.21300227539062L33.3049478328125,35.474553275390626L33.3049478328125,24.330651755390626L33.7299409328125,23.659332275390625L31.3849520728125,23.659332275390625L31.8099498728125,24.330651525390625L31.8099498728125,35.474551275390624L31.2432861328125,36.213001275390624Z" fill="#11C291" fill-opacity="1"/></g></g><g transform="matrix(0.6564481258392334,-0.754371166229248,0.754371166229248,0.6564481258392334,-4.448081425391138,26.671440822225122)"><g transform="matrix(-1,0,0,-1,63.33477783203125,44.4527587890625)"><path d="M31.667388916015625,22.22637939453125Q34.183567716015624,25.19670699453125,36.27623081601563,25.56382659453125Q35.603589016015626,23.76160489453125,31.667388916015625,22.22637939453125Z" fill="#11C291" fill-opacity="1"/></g><g transform="matrix(-0.7028578519821167,-0.7113302946090698,0.7028577327728271,-0.7113303542137146,37.57438473752336,60.26510798706295)"><path d="M31.240875244140625,22.22979736328125Q33.03512944414062,24.32267066328125,34.52737994414063,24.581340563281252Q34.047727844140624,23.31150686328125,31.240875244140625,22.22979736328125Z" fill="#11C291" fill-opacity="1"/></g></g></g><g><g><g transform="matrix(0.7211062908172607,0.6928243637084961,-0.6928243637084961,0.7211062908172607,18.6975355221075,-10.44819820462726)"><path d="M24.670192715625,23.8132524C20.350958015625,24.3591089,22.416246577625,31.163859000000002,27.488687015625,30.996741C32.561127015625004,30.829624000000003,35.321845015625,23.8119378,33.416029015625,18Q32.412852015625,22.7133751,24.670192715625,23.8132524Z" fill="#000000" fill-opacity="1"/></g><g transform="matrix(-0.7211062908172607,0.6928243637084961,0.6928243637084961,0.7211062908172607,4.178007511538453,-1.6818387568928301)"><path d="M12.01711654375,23.8132524C7.69788184375,24.3591089,9.76317040575,31.163859000000002,14.83561084375,30.996741C19.90805084375,30.829624000000003,22.66876884375,23.8119378,20.76295284375,18Q19.75977584375,22.7133751,12.01711654375,23.8132524Z" fill="#000000" fill-opacity="1"/></g></g></g></g></svg>