<svg width="202" height="39" viewBox="0 0 202 39" fill="none" xmlns="http://www.w3.org/2000/svg">
<path d="M14.6423 11.6755C14.9741 11.6755 15.1401 11.6755 15.2668 11.7399C15.3783 11.7966 15.469 11.8869 15.5258 11.9981C15.5904 12.1245 15.5904 12.2899 15.5904 12.6208V27.0668C15.5904 27.3977 15.5904 27.5631 15.5258 27.6895C15.469 27.8007 15.3783 27.8911 15.2668 27.9477C15.1401 28.0121 14.9741 28.0121 14.6423 28.0121H12.2205C12.0567 28.0121 11.9747 28.0121 11.8989 27.9917C11.8317 27.9736 11.7682 27.9438 11.7113 27.9037C11.6471 27.8585 11.5949 27.7956 11.4903 27.6699L5.04483 19.913C4.88985 19.7265 4.81236 19.6332 4.74464 19.6234C4.68599 19.6149 4.62697 19.6361 4.58723 19.68C4.54134 19.7306 4.54134 19.8517 4.54134 20.0939V27.0668C4.54134 27.3977 4.54134 27.5631 4.47676 27.6895C4.41994 27.8007 4.32929 27.8911 4.21779 27.9477C4.09103 28.0121 3.92509 28.0121 3.59321 28.0121H0.948139C0.616259 28.0121 0.450319 28.0121 0.323558 27.9477C0.212056 27.8911 0.121401 27.8007 0.0645881 27.6895C0 27.5631 0 27.3977 0 27.0668V12.6208C0 12.2899 0 12.1245 0.0645881 11.9981C0.121401 11.8869 0.212056 11.7966 0.323558 11.7399C0.450319 11.6755 0.616259 11.6755 0.948139 11.6755H3.3699C3.53373 11.6755 3.61565 11.6755 3.69152 11.696C3.75874 11.7141 3.82224 11.7438 3.87909 11.7839C3.94327 11.8291 3.99553 11.892 4.10004 12.0178L10.5456 19.7747C10.7005 19.9612 10.778 20.0544 10.8458 20.0642C10.9044 20.0727 10.9634 20.0515 11.0032 20.0077C11.049 19.957 11.049 19.8359 11.049 19.5938V12.6208C11.049 12.2899 11.049 12.1245 11.1136 11.9981C11.1704 11.8869 11.2611 11.7966 11.3726 11.7399C11.4994 11.6755 11.6653 11.6755 11.9972 11.6755H14.6423Z" fill="white"/>
<path d="M23.5268 15.2462C23.4272 15.2462 23.3774 15.2462 23.3394 15.2656C23.306 15.2826 23.2788 15.3097 23.2617 15.343C23.2424 15.3809 23.2423 15.4306 23.2423 15.5298V18.5567C23.2423 18.656 23.2424 18.7056 23.2617 18.7435C23.2788 18.7769 23.306 18.804 23.3394 18.821C23.3774 18.8403 23.4272 18.8403 23.5268 18.8403H29.5276C29.8595 18.8403 30.0254 18.8403 30.1522 18.9047C30.2637 18.9613 30.3543 19.0517 30.4111 19.1629C30.4757 19.2892 30.4757 19.4547 30.4757 19.7855V21.4657C30.4757 21.7966 30.4757 21.962 30.4111 22.0884C30.3543 22.1996 30.2637 22.29 30.1522 22.3466C30.0254 22.411 29.8595 22.411 29.5276 22.411H23.5268C23.4272 22.411 23.3774 22.411 23.3394 22.4303C23.306 22.4473 23.2788 22.4744 23.2617 22.5078C23.2424 22.5457 23.2423 22.5953 23.2423 22.6946V27.0668C23.2423 27.3977 23.2423 27.5631 23.1778 27.6895C23.1209 27.8007 23.0303 27.8911 22.9188 27.9477C22.792 28.0121 22.6261 28.0121 22.2942 28.0121H19.5555C19.2236 28.0121 19.0577 28.0121 18.9309 27.9477C18.8194 27.8911 18.7288 27.8007 18.672 27.6895C18.6074 27.5631 18.6074 27.3977 18.6074 27.0668V12.6208C18.6074 12.2899 18.6074 12.1245 18.672 11.9981C18.7288 11.8869 18.8194 11.7966 18.9309 11.7399C19.0577 11.6755 19.2236 11.6755 19.5555 11.6755H30.5108C30.8426 11.6755 31.0086 11.6755 31.1353 11.7399C31.2469 11.7966 31.3375 11.8869 31.3943 11.9981C31.4589 12.1245 31.4589 12.2899 31.4589 12.6208V14.301C31.4589 14.6319 31.4589 14.7973 31.3943 14.9237C31.3375 15.0348 31.2469 15.1252 31.1353 15.1818C31.0086 15.2462 30.8426 15.2462 30.5108 15.2462H23.5268Z" fill="white"/>
<path fill-rule="evenodd" clip-rule="evenodd" d="M46.5015 3.69347C46.9896 3.64158 47.3431 3.205 47.2911 2.71833C47.239 2.23166 46.8011 1.87921 46.313 1.93109L44.4976 2.12405C43.5676 2.2229 42.8216 2.30219 42.2158 2.4117C41.5917 2.5245 41.0568 2.67871 40.56 2.95627C39.7534 3.40692 39.0848 4.06728 38.6255 4.86699C38.3425 5.35964 38.1832 5.89127 38.0648 6.512C37.9499 7.11447 37.8641 7.8567 37.7573 8.78191L37.7527 8.82177L37.5744 10.5891C37.5253 11.076 37.8815 11.5105 38.3699 11.5595C38.8584 11.6084 39.2941 11.2534 39.3433 10.7664L39.5202 9.01182C39.6315 8.04881 39.7102 7.37307 39.8113 6.84318C39.9105 6.32315 40.0212 6.00366 40.1682 5.74767C40.4675 5.22667 40.9032 4.79623 41.4291 4.50239C41.6877 4.35794 42.0097 4.2502 42.5329 4.15563C43.0672 4.05906 43.7483 3.9861 44.7197 3.88286L46.5015 3.69347ZM63.7945 2.7184C63.7425 3.20506 64.096 3.64165 64.5842 3.69353L66.366 3.88293C67.3373 3.98617 68.0185 4.05913 68.5527 4.15569C69.0759 4.25027 69.398 4.35801 69.6565 4.50246C70.1824 4.79629 70.6182 5.22674 70.9174 5.74773C71.0644 6.00372 71.1752 6.32321 71.2744 6.84325C71.3755 7.37314 71.4542 8.04887 71.5654 9.01189L71.7424 10.7665C71.7915 11.2534 72.2273 11.6085 72.7157 11.5595C73.2042 11.5106 73.5603 11.0761 73.5112 10.5891L73.333 8.82183L73.3284 8.78198L73.3284 8.78191L73.3283 8.78178L73.3283 8.78155L73.3283 8.78114C73.2214 7.85631 73.1357 7.11435 73.0208 6.51207C72.9024 5.89134 72.7431 5.35971 72.4601 4.86706C72.0009 4.06735 71.3322 3.40699 70.5256 2.95634C70.0288 2.67878 69.494 2.52457 68.8698 2.41176C68.264 2.30226 67.5181 2.22297 66.588 2.12412L64.7726 1.93116C64.2845 1.87927 63.8466 2.23173 63.7945 2.7184ZM63.7945 36.972C63.7425 36.4854 64.096 36.0488 64.5842 35.9969L66.366 35.8075C67.3373 35.7043 68.0185 35.6313 68.5527 35.5347C69.0759 35.4402 69.398 35.3324 69.6565 35.188C70.1824 34.8941 70.6182 34.4637 70.9174 33.9427C71.0644 33.6867 71.1752 33.3672 71.2744 32.8472C71.3755 32.3173 71.4542 31.6416 71.5654 30.6785L71.7424 28.924C71.7915 28.437 72.2273 28.0819 72.7157 28.1309C73.2042 28.1799 73.5603 28.6143 73.5112 29.1013L73.333 30.8686L73.3284 30.9084L73.3284 30.9085C73.2215 31.8337 73.1358 32.5759 73.0208 33.1784C72.9024 33.7991 72.7431 34.3307 72.4601 34.8234C72.0009 35.6231 71.3322 36.2834 70.5256 36.7341C70.0288 37.0116 69.494 37.1659 68.8698 37.2787C68.264 37.3882 67.5181 37.4675 66.588 37.5663H66.588L64.7726 37.7593C64.2845 37.8111 63.8466 37.4587 63.7945 36.972ZM47.2911 36.972C47.3431 36.4854 46.9896 36.0488 46.5015 35.9969L44.7197 35.8075C43.7483 35.7043 43.0672 35.6313 42.5329 35.5347C42.0097 35.4402 41.6877 35.3324 41.4291 35.188C40.9032 34.8941 40.4675 34.4637 40.1683 33.9427C40.0212 33.6867 39.9105 33.3672 39.8113 32.8472C39.7102 32.3173 39.6315 31.6416 39.5202 30.6785L39.3433 28.924C39.2941 28.437 38.8584 28.0819 38.3699 28.1309C37.8815 28.1799 37.5253 28.6143 37.5744 29.1013L37.7527 30.8686L37.7573 30.9084C37.8641 31.8337 37.9499 32.5759 38.0648 33.1784C38.1832 33.7991 38.3426 34.3307 38.6255 34.8234C39.0848 35.6231 39.7535 36.2834 40.56 36.7341C41.0568 37.0116 41.5917 37.1659 42.2158 37.2787C42.8216 37.3882 43.5675 37.4674 44.4975 37.5663L44.4976 37.5663H44.4976L46.313 37.7593C46.8011 37.8111 47.239 37.4587 47.2911 36.972ZM46.806 13.0109C46.3836 13.0109 46.0412 13.3533 46.0412 13.7757V26.1728C46.0412 26.5952 46.3836 26.9376 46.806 26.9376H49.2276C49.65 26.9376 49.9925 26.5952 49.9925 26.1728V13.7757C49.9925 13.3533 49.65 13.0109 49.2276 13.0109H46.806ZM53.3533 13.0109C52.9309 13.0109 52.5884 13.3533 52.5884 13.7757V26.1728C52.5884 26.5952 52.9309 26.9376 53.3533 26.9376H59.1938C60.7238 26.9376 62.0808 26.6525 63.2648 26.0821C64.4489 25.5118 65.3668 24.7027 66.0187 23.6549C66.6706 22.6071 66.9966 21.3802 66.9966 19.9743C66.9966 18.5683 66.6706 17.3415 66.0187 16.2936C65.3668 15.2458 64.4489 14.4367 63.2648 13.8664C62.0808 13.2961 60.7238 13.0109 59.1938 13.0109H53.3533ZM61.9078 22.7795C61.1894 23.4559 60.2315 23.7942 59.0342 23.7942H56.7691C56.6424 23.7942 56.5397 23.6914 56.5397 23.5647V16.3838C56.5397 16.2571 56.6424 16.1544 56.7691 16.1544H59.0342C60.2315 16.1544 61.1894 16.4926 61.9078 17.169C62.6395 17.8455 63.0054 18.7805 63.0054 19.9743C63.0054 21.168 62.6395 22.1031 61.9078 22.7795Z" fill="url(#paint0_linear_67888_44026)"/>
<path d="M199.683 15.7473C199.959 15.7473 200.183 15.9711 200.183 16.2473V17.8033C200.183 18.0794 199.959 18.3033 199.683 18.3033H193.295C193.018 18.3033 192.795 18.0794 192.795 17.8033V16.2473C192.795 15.9711 193.018 15.7473 193.295 15.7473H199.683ZM194.472 13.3079C194.472 13.0317 194.696 12.8079 194.972 12.8079H197.375C197.651 12.8079 197.875 13.0317 197.875 13.3079V24.246C197.875 24.5601 197.922 24.8051 198.018 24.9808C198.114 25.1512 198.247 25.271 198.418 25.3402C198.593 25.4095 198.796 25.4441 199.025 25.4441C199.185 25.4441 199.344 25.4308 199.504 25.4041C199.708 25.3633 199.906 25.4949 199.949 25.6986L200.313 27.4193C200.366 27.6716 200.218 27.922 199.968 27.9829C199.882 28.0037 199.788 28.0255 199.688 28.048C199.379 28.1226 199.003 28.1678 198.562 28.1838C197.741 28.2158 197.023 28.1066 196.405 27.8563C195.793 27.606 195.316 27.2173 194.975 26.6901C194.634 26.163 194.467 25.4973 194.472 24.6933V13.3079Z" fill="white"/>
<path d="M188.029 28.0161C187.753 28.0161 187.529 27.7922 187.529 27.5161V16.2473C187.529 15.9711 187.753 15.7473 188.029 15.7473H190.431C190.708 15.7473 190.931 15.9711 190.931 16.2473V27.5161C190.931 27.7922 190.708 28.0161 190.431 28.0161H188.029ZM189.238 14.1658C188.732 14.1658 188.298 13.998 187.936 13.6625C187.579 13.3217 187.401 12.9144 187.401 12.4405C187.401 11.9719 187.579 11.5698 187.936 11.2343C188.298 10.8935 188.732 10.7231 189.238 10.7231C189.744 10.7231 190.175 10.8935 190.532 11.2343C190.894 11.5698 191.075 11.9719 191.075 12.4405C191.075 12.9144 190.894 13.3217 190.532 13.6625C190.175 13.998 189.744 14.1658 189.238 14.1658Z" fill="white"/>
<path d="M171.816 28.0161C171.54 28.0161 171.316 27.7923 171.316 27.5161V12.1577C171.316 11.8816 171.54 11.6577 171.816 11.6577H174.275C174.551 11.6577 174.775 11.8816 174.775 12.1577V18.7242C174.775 18.805 174.84 18.8704 174.921 18.8704C174.965 18.8704 175.006 18.8507 175.034 18.8167L180.727 11.8416C180.822 11.7252 180.964 11.6577 181.114 11.6577H183.959C184.382 11.6577 184.614 12.1509 184.344 12.4768L179.192 18.6929C179.05 18.8643 179.038 19.109 179.164 19.2931L184.563 27.235C184.789 27.5669 184.551 28.0161 184.15 28.0161H181.225C181.058 28.0161 180.901 27.9325 180.809 27.7934L176.851 21.853C176.664 21.5733 176.261 21.5534 176.048 21.8133L174.888 23.2292C174.815 23.3186 174.775 23.4305 174.775 23.5461V27.5161C174.775 27.7923 174.551 28.0161 174.275 28.0161H171.816Z" fill="white"/>
<path d="M160.174 32.6169C159.742 32.6169 159.338 32.5823 158.959 32.5131C158.779 32.4821 158.613 32.4468 158.463 32.4071C158.214 32.3416 158.09 32.0779 158.164 31.8318L158.655 30.2062C158.735 29.941 159.014 29.7953 159.286 29.851C159.496 29.8943 159.694 29.919 159.878 29.9251C160.203 29.9358 160.482 29.8612 160.717 29.7015C160.956 29.5417 161.151 29.2702 161.3 28.8868L161.434 28.5386C161.476 28.4282 161.478 28.3062 161.439 28.1945L157.33 16.412C157.217 16.087 157.458 15.7473 157.802 15.7473H160.298C160.522 15.7473 160.719 15.8962 160.779 16.1116L163.199 24.6956C163.21 24.7321 163.243 24.7572 163.281 24.7572C163.319 24.7572 163.352 24.7322 163.362 24.6958L165.805 16.1105C165.866 15.8956 166.063 15.7473 166.286 15.7473H168.806C169.15 15.7473 169.392 16.0877 169.278 16.4128L164.742 29.342C164.513 30.0023 164.202 30.5774 163.808 31.0673C163.419 31.5626 162.927 31.9433 162.33 32.2096C161.734 32.4811 161.015 32.6169 160.174 32.6169Z" fill="white"/>
<path d="M155.356 15.7473C155.632 15.7473 155.856 15.9711 155.856 16.2473V17.8033C155.856 18.0794 155.632 18.3033 155.356 18.3033H148.968C148.692 18.3033 148.468 18.0794 148.468 17.8033V16.2473C148.468 15.9711 148.692 15.7473 148.968 15.7473H155.356ZM150.145 13.3079C150.145 13.0317 150.369 12.8079 150.645 12.8079H153.048C153.324 12.8079 153.548 13.0317 153.548 13.3079V24.246C153.548 24.5601 153.596 24.8051 153.692 24.9808C153.788 25.1512 153.921 25.271 154.091 25.3402C154.267 25.4095 154.469 25.4441 154.698 25.4441C154.858 25.4441 155.018 25.4308 155.177 25.4041C155.382 25.3633 155.579 25.4949 155.622 25.6986L155.986 27.4193C156.039 27.6716 155.892 27.922 155.641 27.9829C155.555 28.0037 155.462 28.0255 155.361 28.048C155.052 28.1226 154.677 28.1678 154.235 28.1838C153.415 28.2158 152.696 28.1066 152.078 27.8563C151.466 27.606 150.989 27.2173 150.648 26.6901C150.308 26.163 150.14 25.4973 150.145 24.6933V13.3079Z" fill="white"/>
<path d="M143.702 28.0161C143.426 28.0161 143.202 27.7922 143.202 27.5161V16.2473C143.202 15.9711 143.426 15.7473 143.702 15.7473H146.105C146.381 15.7473 146.605 15.9711 146.605 16.2473V27.5161C146.605 27.7922 146.381 28.0161 146.105 28.0161H143.702ZM144.911 14.1658C144.406 14.1658 143.972 13.998 143.61 13.6625C143.253 13.3217 143.074 12.9144 143.074 12.4405C143.074 11.9719 143.253 11.5698 143.61 11.2343C143.972 10.8935 144.406 10.7231 144.911 10.7231C145.417 10.7231 145.849 10.8935 146.205 11.2343C146.568 11.5698 146.749 11.9719 146.749 12.4405C146.749 12.9144 146.568 13.3217 146.205 13.6625C145.849 13.998 145.417 14.1658 144.911 14.1658Z" fill="white"/>
<path d="M140.486 15.7473C140.762 15.7473 140.986 15.9711 140.986 16.2473V17.8033C140.986 18.0794 140.762 18.3033 140.486 18.3033H134.097C133.821 18.3033 133.597 18.0794 133.597 17.8033V16.2473C133.597 15.9711 133.821 15.7473 134.097 15.7473H140.486ZM135.275 13.3079C135.275 13.0317 135.498 12.8079 135.775 12.8079H138.177C138.453 12.8079 138.677 13.0317 138.677 13.3079V24.246C138.677 24.5601 138.725 24.8051 138.821 24.9808C138.917 25.1512 139.05 25.271 139.22 25.3402C139.396 25.4095 139.598 25.4441 139.827 25.4441C139.987 25.4441 140.147 25.4308 140.307 25.4041C140.511 25.3633 140.708 25.4949 140.752 25.6986L141.115 27.4193C141.169 27.6716 141.021 27.922 140.77 27.9829C140.684 28.0037 140.591 28.0255 140.49 28.048C140.182 28.1226 139.806 28.1678 139.364 28.1838C138.544 28.2158 137.825 28.1066 137.208 27.8563C136.595 27.606 136.119 27.2173 135.778 26.6901C135.437 26.163 135.269 25.4973 135.275 24.6933V13.3079Z" fill="white"/>
<path d="M123.87 20.9233V27.5162C123.87 27.7923 123.647 28.0162 123.37 28.0162H120.968C120.692 28.0162 120.468 27.7923 120.468 27.5162V16.2474C120.468 15.9713 120.692 15.7474 120.968 15.7474H123.211C123.487 15.7474 123.711 15.9713 123.711 16.2474V17.8269C123.711 17.8739 123.749 17.912 123.796 17.912C123.831 17.912 123.863 17.8901 123.876 17.8573C124.15 17.1696 124.598 16.6233 125.22 16.2187C125.859 15.798 126.634 15.5876 127.545 15.5876C128.397 15.5876 129.139 15.774 129.773 16.1468C130.407 16.5195 130.899 17.052 131.251 17.7443C131.602 18.4312 131.778 19.2512 131.778 20.2044V27.5162C131.778 27.7923 131.554 28.0162 131.278 28.0162H128.875C128.599 28.0162 128.375 27.7923 128.375 27.5162V20.8115C128.381 20.0606 128.189 19.4749 127.8 19.0542C127.412 18.6282 126.876 18.4152 126.195 18.4152C125.737 18.4152 125.332 18.5137 124.981 18.7108C124.635 18.9078 124.363 19.1953 124.166 19.5734C123.974 19.9462 123.876 20.3961 123.87 20.9233Z" fill="white"/>
<path d="M112.616 28.2558C111.354 28.2558 110.268 28.0002 109.357 27.489C108.452 26.9725 107.754 26.243 107.264 25.3004C106.774 24.3526 106.53 23.2317 106.53 21.9377C106.53 20.6757 106.774 19.5681 107.264 18.6149C107.754 17.6617 108.444 16.9189 109.333 16.3864C110.228 15.8539 111.277 15.5876 112.48 15.5876C113.29 15.5876 114.043 15.7181 114.741 15.979C115.444 16.2346 116.056 16.6207 116.578 17.1372C117.105 17.6537 117.515 18.3034 117.808 19.0862C118.101 19.8636 118.247 20.7742 118.247 21.8179V22.2524C118.247 22.5286 118.023 22.7524 117.747 22.7524H108.387C108.111 22.7524 107.887 22.5286 107.887 22.2524V21.1437C107.887 20.8676 108.111 20.6437 108.387 20.6437H114.544C114.82 20.6437 115.05 20.4182 115.004 20.1459C114.956 19.8544 114.863 19.5864 114.725 19.3418C114.512 18.9637 114.216 18.6682 113.838 18.4552C113.465 18.2368 113.031 18.1277 112.536 18.1277C112.02 18.1277 111.562 18.2475 111.162 18.4871C110.768 18.7214 110.459 19.0382 110.236 19.4376C110.012 19.8317 109.898 20.271 109.892 20.7556V22.7604C109.892 23.3675 110.004 23.892 110.228 24.334C110.457 24.7759 110.779 25.1167 111.194 25.3564C111.61 25.596 112.102 25.7158 112.672 25.7158C113.05 25.7158 113.396 25.6625 113.71 25.556C114.024 25.4495 114.293 25.2898 114.517 25.0768C114.655 24.9454 114.773 24.7959 114.87 24.6281C114.98 24.4379 115.178 24.3039 115.397 24.3184L117.6 24.4637C117.903 24.4838 118.121 24.7696 118.022 25.0573C117.839 25.5859 117.563 26.061 117.193 26.4826C116.703 27.0417 116.069 27.4784 115.292 27.7925C114.52 28.1014 113.628 28.2558 112.616 28.2558Z" fill="white"/>
<path d="M97.246 28.2158C96.3142 28.2158 95.4702 27.9762 94.714 27.4969C93.9632 27.0124 93.3668 26.3015 92.9248 25.3643C92.4882 24.4217 92.2698 23.2662 92.2698 21.8977C92.2698 20.4919 92.4961 19.3231 92.9488 18.3912C93.4014 17.454 94.0031 16.7537 94.7539 16.2905C95.5101 15.8219 96.3381 15.5876 97.2381 15.5876C97.925 15.5876 98.4974 15.7047 98.9554 15.939C99.4186 16.168 99.7914 16.4555 100.074 16.8017C100.35 17.1297 100.563 17.4529 100.712 17.7711C100.722 17.7936 100.745 17.8081 100.769 17.8081C100.804 17.8081 100.832 17.7798 100.832 17.745V12.1577C100.832 11.8816 101.056 11.6577 101.332 11.6577H103.727C104.003 11.6577 104.227 11.8816 104.227 12.1577V27.5161C104.227 27.7923 104.003 28.0161 103.727 28.0161H101.372C101.096 28.0161 100.872 27.7923 100.872 27.5161V26.1391C100.872 26.0905 100.833 26.0512 100.784 26.0512C100.75 26.0512 100.719 26.0709 100.704 26.1016C100.546 26.4253 100.328 26.7467 100.05 27.0656C99.7621 27.3958 99.3867 27.67 98.9234 27.8883C98.4655 28.1066 97.9064 28.2158 97.246 28.2158ZM98.3244 25.508C98.8728 25.508 99.3361 25.3589 99.7142 25.0607C100.098 24.7572 100.39 24.3339 100.593 23.7907C100.8 23.2476 100.904 22.6112 100.904 21.8817C100.904 21.1522 100.803 20.5185 100.601 19.9807C100.398 19.4429 100.106 19.0275 99.7222 18.7346C99.3388 18.4418 98.8728 18.2953 98.3244 18.2953C97.7652 18.2953 97.294 18.4471 96.9106 18.7506C96.5272 19.0541 96.237 19.4748 96.0399 20.0126C95.8429 20.5505 95.7444 21.1735 95.7444 21.8817C95.7444 22.5953 95.8429 23.2263 96.0399 23.7748C96.2423 24.3179 96.5325 24.7439 96.9106 25.0528C97.294 25.3563 97.7652 25.508 98.3244 25.508Z" fill="white"/>
<path d="M89.4435 11.6577C89.7196 11.6577 89.9435 11.8816 89.9435 12.1577V27.5161C89.9435 27.7923 89.7196 28.0161 89.4435 28.0161H86.9849C86.7088 28.0161 86.4849 27.7923 86.4849 27.5161V12.1577C86.4849 11.8816 86.7088 11.6577 86.9849 11.6577H89.4435Z" fill="white"/>
<defs>
<linearGradient id="paint0_linear_67888_44026" x1="46.2108" y1="13.8528" x2="58.4996" y2="31.768" gradientUnits="userSpaceOnUse">
<stop stop-color="#CC5CDC"/>
<stop offset="0.244792" stop-color="#7B66FF"/>
<stop offset="0.520833" stop-color="#1F8AF0"/>
<stop offset="0.760417" stop-color="#00D1FF"/>
<stop offset="1" stop-color="#3DEDD7"/>
</linearGradient>
</defs>
</svg>
