<?xml version="1.0" standalone="no"?>
<!DOCTYPE svg PUBLIC "-//W3C//DTD SVG 20010904//EN"
 "http://www.w3.org/TR/2001/REC-SVG-20010904/DTD/svg10.dtd">
<svg version="1.0" xmlns="http://www.w3.org/2000/svg"
 width="700.000000pt" height="700.000000pt" viewBox="0 0 700.000000 700.000000"
 preserveAspectRatio="xMidYMid meet">
<metadata>
Created by potrace 1.14, written by Peter Selinger 2001-2017
</metadata>
<g transform="translate(0.000000,700.000000) scale(0.100000,-0.100000)"
fill="#000000" stroke="none">
<path d="M3329 6996 c-2 -2 -47 -6 -99 -10 -659 -43 -1338 -303 -1870 -715
-181 -140 -414 -363 -535 -512 -11 -13 -38 -47 -61 -74 -358 -441 -624 -1038
-713 -1605 -39 -246 -46 -338 -45 -590 0 -241 9 -356 45 -575 79 -477 268
-958 532 -1350 57 -85 165 -234 177 -245 3 -3 35 -41 70 -85 74 -92 274 -295
370 -376 35 -30 71 -60 79 -68 8 -7 49 -39 90 -70 42 -31 78 -59 81 -62 5 -6
198 -133 241 -158 13 -8 56 -32 94 -53 39 -21 77 -43 85 -48 35 -21 267 -130
285 -134 6 -1 28 -10 50 -20 53 -23 378 -128 435 -140 14 -3 66 -15 115 -26
50 -11 106 -22 125 -25 19 -3 62 -10 95 -15 106 -17 128 -20 230 -27 178 -14
643 -6 698 12 7 2 41 6 76 10 36 3 67 7 70 9 3 2 30 6 59 10 251 30 661 165
976 323 172 86 437 252 551 345 11 9 63 51 115 94 133 109 348 327 461 469
400 500 630 1012 744 1660 35 197 50 582 32 830 -47 677 -322 1375 -753 1910
-112 139 -135 165 -270 300 -445 443 -994 753 -1612 910 -118 29 -350 71 -447
79 -38 4 -86 9 -105 12 -38 6 -465 15 -471 10z"/>
</g>
</svg>
